<?xml version="1.0" encoding="UTF-8" standalone="no"?>
<!-- Created with Inkscape (http://www.inkscape.org/) -->

<svg
   xmlns:dc="http://purl.org/dc/elements/1.1/"
   xmlns:cc="http://creativecommons.org/ns#"
   xmlns:rdf="http://www.w3.org/1999/02/22-rdf-syntax-ns#"
   xmlns:svg="http://www.w3.org/2000/svg"
   xmlns="http://www.w3.org/2000/svg"
   xmlns:sodipodi="http://sodipodi.sourceforge.net/DTD/sodipodi-0.dtd"
   xmlns:inkscape="http://www.inkscape.org/namespaces/inkscape"
   width="40"
   height="40"
   viewBox="0 0 10.583333 10.583334"
   version="1.1"
   id="svg5494"
   inkscape:version="0.92.2 (5c3e80d, 2017-08-06)"
   sodipodi:docname="distant_gulls.svg">
  <defs
     id="defs5488" />
  <sodipodi:namedview
     id="base"
     pagecolor="#ffffff"
     bordercolor="#666666"
     borderopacity="1.0"
     inkscape:pageopacity="0.0"
     inkscape:pageshadow="2"
     inkscape:zoom="22.4"
     inkscape:cx="16.002494"
     inkscape:cy="20.579716"
     inkscape:document-units="mm"
     inkscape:current-layer="layer1"
     showgrid="false"
     units="px"
     inkscape:window-width="1920"
     inkscape:window-height="1017"
     inkscape:window-x="1912"
     inkscape:window-y="-8"
     inkscape:window-maximized="1" />
  <metadata
     id="metadata5491">
    <rdf:RDF>
      <cc:Work
         rdf:about="">
        <dc:format>image/svg+xml</dc:format>
        <dc:type
           rdf:resource="http://purl.org/dc/dcmitype/StillImage" />
        <dc:title></dc:title>
      </cc:Work>
    </rdf:RDF>
  </metadata>
  <g
     inkscape:label="gull 1"
     inkscape:groupmode="layer"
     id="layer1"
     transform="translate(0,-286.41665)">
    <path
       style="opacity:1;vector-effect:none;fill:#eaeced;fill-opacity:1;stroke:#869ca0;stroke-width:0.17638889;stroke-linecap:round;stroke-linejoin:round;stroke-miterlimit:4;stroke-dasharray:none;stroke-dashoffset:0;stroke-opacity:1"
       d="m 1.7481398,291.66107 c 0.9101375,-0.11089 1.4327975,-0.30868 2.2022306,-0.9178 0.5915201,-0.46828 1.185526,-0.82363 1.7547076,-0.67679 0.6186963,0.15962 0.8284486,0.73607 1.027076,1.31008 0.3152626,0.91107 0.5020561,1.65 1.1462872,2.42244 -0.5056872,-0.21656 -1.0823206,-0.74453 -1.4578028,-1.6255 -0.3996491,-0.93767 -0.4977342,-1.00663 -0.9636071,-1.13845 -0.4429656,-0.12534 -1.0412644,0.30511 -1.4833591,0.51631 -1.007227,0.48119 -2.116223,0.35355 -2.2255324,0.10971 z"
       id="path6079"
       inkscape:connector-curvature="0"
       sodipodi:nodetypes="cssscsssc" />
  </g>
  <g
     inkscape:groupmode="layer"
     id="layer28"
     inkscape:label="gull 2"
     transform="translate(0,-286.41665)"
     style="display:inline">
    <path
       style="opacity:1;vector-effect:none;fill:#eaeced;fill-opacity:1;stroke:#869ca0;stroke-width:0.17638889;stroke-linecap:round;stroke-linejoin:round;stroke-miterlimit:4;stroke-dasharray:none;stroke-dashoffset:0;stroke-opacity:1"
       d="m 3.2901332,290.11984 c 0.7791652,0.17767 1.1017808,0.78532 1.6426021,1.49831 1.0121659,-0.98937 1.9067038,-1.08721 2.5799559,-0.80515 1.0404881,0.43586 0.9436489,1.3076 1.153324,2.14111 -0.4867574,-0.49052 -0.7137404,-1.45425 -1.6519528,-1.58173 -0.9382167,-0.12746 -1.6103498,1.59291 -2.2464768,1.45581 -0.7852061,-0.16924 -0.7828862,-1.86879 -1.5732894,-2.13847 -1.0260766,-0.35009 -1.1897454,0.41308 -2.1069671,0.64549 0.5849386,-0.49395 0.9274313,-1.5062 2.2028041,-1.21537 z"
       id="path6041-6"
       inkscape:connector-curvature="0"
       sodipodi:nodetypes="scscssscs" />
  </g>
  <g
     inkscape:groupmode="layer"
     id="layer29"
     inkscape:label="gull 3"
     transform="translate(0,-286.41665)"
     style="display:inline">
    <path
       style="opacity:1;vector-effect:none;fill:#eaeced;fill-opacity:1;stroke:#869ca0;stroke-width:0.17638889;stroke-linecap:round;stroke-linejoin:round;stroke-miterlimit:4;stroke-dasharray:none;stroke-dashoffset:0;stroke-opacity:1"
       d="m 1.0189651,293.55889 c 1.4741667,-0.90294 1.2427326,-2.29481 3.775182,-2.07134 1.0856631,-2.61889 3.0825767,-1.43932 4.4266515,-2.50565 -0.5115321,0.89711 -2.0587167,1.09122 -2.7217114,1.84444 -0.3796436,0.43131 -0.3652081,1.2563 -0.9198359,1.59666 -0.7974823,0.48938 -1.2592025,-0.003 -1.9698356,0.0505 -0.9635418,0.0722 -1.3037767,0.68082 -2.5904506,1.08544 z"
       id="path6041"
       inkscape:connector-curvature="0"
       sodipodi:nodetypes="cccssscc" />
  </g>
</svg>
