<?xml version="1.0" encoding="UTF-8" standalone="no"?>
<!-- Created with Inkscape (http://www.inkscape.org/) -->

<svg
   xmlns:dc="http://purl.org/dc/elements/1.1/"
   xmlns:cc="http://creativecommons.org/ns#"
   xmlns:rdf="http://www.w3.org/1999/02/22-rdf-syntax-ns#"
   xmlns:svg="http://www.w3.org/2000/svg"
   xmlns="http://www.w3.org/2000/svg"
   xmlns:sodipodi="http://sodipodi.sourceforge.net/DTD/sodipodi-0.dtd"
   xmlns:inkscape="http://www.inkscape.org/namespaces/inkscape"
   width="50mm"
   height="40mm"
   viewBox="0 0 50 39.999999"
   version="1.1"
   id="svg4606"
   inkscape:version="0.92.2 (5c3e80d, 2017-08-06)"
   sodipodi:docname="sea_floor.svg">
  <defs
     id="defs4600" />
  <sodipodi:namedview
     id="base"
     pagecolor="#ffffff"
     bordercolor="#666666"
     borderopacity="1.0"
     inkscape:pageopacity="0.0"
     inkscape:pageshadow="2"
     inkscape:zoom="3.959798"
     inkscape:cx="128.05342"
     inkscape:cy="61.188465"
     inkscape:document-units="mm"
     inkscape:current-layer="layer1"
     showgrid="false"
     inkscape:snap-page="true"
     inkscape:window-width="1920"
     inkscape:window-height="1009"
     inkscape:window-x="1912"
     inkscape:window-y="-8"
     inkscape:window-maximized="1" />
  <metadata
     id="metadata4603">
    <rdf:RDF>
      <cc:Work
         rdf:about="">
        <dc:format>image/svg+xml</dc:format>
        <dc:type
           rdf:resource="http://purl.org/dc/dcmitype/StillImage" />
        <dc:title></dc:title>
      </cc:Work>
    </rdf:RDF>
  </metadata>
  <g
     inkscape:label="sea floor"
     inkscape:groupmode="layer"
     id="layer1"
     transform="translate(0,-257)"
     sodipodi:insensitive="true">
    <rect
       style="opacity:1;fill:#e2d2bc;fill-opacity:1;stroke:none;stroke-width:0.29627898;stroke-linecap:round;stroke-linejoin:miter;stroke-miterlimit:4;stroke-dasharray:none;stroke-dashoffset:0;stroke-opacity:1"
       id="rect5151"
       width="50"
       height="40"
       x="0"
       y="257" />
    <g
       id="g6579"
       style="opacity:0.62599996">
      <path
         sodipodi:nodetypes="cssssssccccsccscssccc"
         inkscape:connector-curvature="0"
         id="path5153"
         d="m 20.313755,257 c 0,0.92581 -0.257508,1.55884 -0.6875,2.17578 -0.429992,0.61694 -1.057724,1.19435 -1.744141,1.84375 -1.372833,1.2988 -4.96875,3.01715 -4.96875,5.98047 0,2.96332 3.618073,4.59434 4.982422,5.83008 1.364349,1.23574 2.417969,2.06749 2.417969,4.16992 0,2.09851 -1.089006,3.06147 -2.453125,4.34375 -1.364119,1.28228 -4.653267,2.89033 -4.616537,5.66797 0.03663,2.76982 3.339303,4.27524 4.675131,5.49219 1.335827,1.21694 2.394531,2.1462 2.394531,4.49609 h 3.370071 c 0,-2.9442 -3.221154,-4.5655 -4.577102,-5.80078 -1.355949,-1.23528 -2.417182,-2.08374 -2.445313,-4.21094 -0.02803,-2.11938 1.046214,-3.08093 2.40625,-4.35937 1.360036,-1.27845 4.757906,-2.86735 4.757906,-5.62891 0,-2.75764 -3.40257,-4.26155 -4.746187,-5.47852 -1.343617,-1.21696 -2.417969,-2.1557 -2.417969,-4.52148 0,-2.36578 1.098461,-3.43608 2.433594,-4.69922 0.667566,-0.63157 1.39302,-1.27713 1.978516,-2.11719 0.585495,-0.84005 2.657552,-1.89782 2.657552,-3.18359 z"
         style="color:#000000;font-style:normal;font-variant:normal;font-weight:normal;font-stretch:normal;font-size:medium;line-height:normal;font-family:sans-serif;font-variant-ligatures:normal;font-variant-position:normal;font-variant-caps:normal;font-variant-numeric:normal;font-variant-alternates:normal;font-feature-settings:normal;text-indent:0;text-align:start;text-decoration:none;text-decoration-line:none;text-decoration-style:solid;text-decoration-color:#000000;letter-spacing:normal;word-spacing:normal;text-transform:none;writing-mode:lr-tb;direction:ltr;text-orientation:mixed;dominant-baseline:auto;baseline-shift:baseline;text-anchor:start;white-space:normal;shape-padding:0;clip-rule:nonzero;overflow:visible;visibility:visible;opacity:1;isolation:auto;mix-blend-mode:normal;color-interpolation:sRGB;color-interpolation-filters:linearRGB;solid-color:#000000;solid-opacity:1;vector-effect:none;fill:#c7995a;fill-opacity:1;fill-rule:nonzero;stroke:none;stroke-width:1.76388884;stroke-linecap:butt;stroke-linejoin:miter;stroke-miterlimit:4;stroke-dasharray:none;stroke-dashoffset:0;stroke-opacity:1;color-rendering:auto;image-rendering:auto;shape-rendering:auto;text-rendering:auto;enable-background:accumulate" />
      <path
         sodipodi:nodetypes="ccssscsssscccsscscssscc"
         inkscape:connector-curvature="0"
         id="path5192"
         d="m 5.4031664,257 0.628033,0.59375 c 0.945078,0.98047 1.593749,1.88998 1.59375,3.54883 0,2.10161 -1.05359,2.93397 -2.417969,4.16992 -1.3643791,1.23595 -4.0847286,2.86676 -4.0847286,5.83008 0,2.96332 2.7203793,4.59433 4.0847286,5.83008 1.364349,1.23574 2.417968,2.06749 2.417969,4.16992 0,2.09851 -1.090959,3.06147 -2.455079,4.34375 -1.3641196,1.28228 -4.1315982,2.89033 -4.0948657,5.66797 0.023008,1.73981 1.8188439,3.03181 2.6397879,3.99609 0.8209438,0.96428 1.3468218,1.08535 2.0631518,1.84961 l 2.302083,0.008 -0.601563,-0.64258 c -0.859549,-0.91706 -1.773509,-1.6001 -2.419922,-2.35937 -0.646413,-0.75927 -1.0682673,-1.53884 -1.0859372,-2.875 -0.028028,-2.11938 1.0462132,-3.08093 2.4062502,-4.35938 1.360036,-1.27844 4.2854346,-2.86734 4.2854346,-5.6289 0,-2.75764 -2.9300986,-4.26155 -4.2737166,-5.47852 -1.343617,-1.21696 -2.4179682,-2.1557 -2.4179682,-4.52148 0,-2.36578 1.0743812,-3.30632 2.4179682,-4.52344 1.343588,-1.21712 4.2737166,-2.71954 4.2737166,-5.47656 0,-2.16904 -1.8199026,-3.02635 -2.8958376,-4.14258 z"
         style="color:#000000;font-style:normal;font-variant:normal;font-weight:normal;font-stretch:normal;font-size:medium;line-height:normal;font-family:sans-serif;font-variant-ligatures:normal;font-variant-position:normal;font-variant-caps:normal;font-variant-numeric:normal;font-variant-alternates:normal;font-feature-settings:normal;text-indent:0;text-align:start;text-decoration:none;text-decoration-line:none;text-decoration-style:solid;text-decoration-color:#000000;letter-spacing:normal;word-spacing:normal;text-transform:none;writing-mode:lr-tb;direction:ltr;text-orientation:mixed;dominant-baseline:auto;baseline-shift:baseline;text-anchor:start;white-space:normal;shape-padding:0;clip-rule:nonzero;overflow:visible;visibility:visible;opacity:1;isolation:auto;mix-blend-mode:normal;color-interpolation:sRGB;color-interpolation-filters:linearRGB;solid-color:#000000;solid-opacity:1;vector-effect:none;fill:#c7995a;fill-opacity:1;fill-rule:nonzero;stroke:none;stroke-width:1.76388884;stroke-linecap:square;stroke-linejoin:miter;stroke-miterlimit:4;stroke-dasharray:none;stroke-dashoffset:0;stroke-opacity:1;color-rendering:auto;image-rendering:auto;shape-rendering:auto;text-rendering:auto;enable-background:accumulate" />
      <path
         sodipodi:nodetypes="ccssscsssscccsscscssscc"
         inkscape:connector-curvature="0"
         id="path5192-4"
         d="m 30.403166,257 0.628033,0.59375 c 0.945078,0.98047 1.593749,1.88998 1.59375,3.54883 0,2.10161 -1.05359,2.93397 -2.417969,4.16992 -1.364379,1.23595 -4.084728,2.86676 -4.084728,5.83008 0,2.96332 2.720379,4.59433 4.084728,5.83008 1.364349,1.23574 2.417968,2.06749 2.417969,4.16992 0,2.09851 -1.090959,3.06147 -2.455079,4.34375 -1.364119,1.28228 -4.131598,2.89033 -4.094865,5.66797 0.02301,1.73981 1.818844,3.03181 2.639788,3.99609 0.820943,0.96428 1.346821,1.08535 2.063151,1.84961 l 2.302083,0.008 -0.601563,-0.64258 c -0.859549,-0.91706 -1.773509,-1.6001 -2.419922,-2.35937 -0.646413,-0.75927 -1.068267,-1.53884 -1.085937,-2.875 -0.02803,-2.11938 1.046213,-3.08093 2.40625,-4.35938 1.360036,-1.27844 4.285435,-2.86734 4.285435,-5.6289 0,-2.75764 -2.930099,-4.26155 -4.273717,-5.47852 -1.343617,-1.21696 -2.417968,-2.1557 -2.417968,-4.52148 0,-2.36578 1.074381,-3.30632 2.417968,-4.52344 1.343588,-1.21712 4.273717,-2.71954 4.273717,-5.47656 0,-2.16904 -1.819903,-3.02635 -2.895838,-4.14258 z"
         style="color:#000000;font-style:normal;font-variant:normal;font-weight:normal;font-stretch:normal;font-size:medium;line-height:normal;font-family:sans-serif;font-variant-ligatures:normal;font-variant-position:normal;font-variant-caps:normal;font-variant-numeric:normal;font-variant-alternates:normal;font-feature-settings:normal;text-indent:0;text-align:start;text-decoration:none;text-decoration-line:none;text-decoration-style:solid;text-decoration-color:#000000;letter-spacing:normal;word-spacing:normal;text-transform:none;writing-mode:lr-tb;direction:ltr;text-orientation:mixed;dominant-baseline:auto;baseline-shift:baseline;text-anchor:start;white-space:normal;shape-padding:0;clip-rule:nonzero;overflow:visible;visibility:visible;opacity:1;isolation:auto;mix-blend-mode:normal;color-interpolation:sRGB;color-interpolation-filters:linearRGB;solid-color:#000000;solid-opacity:1;vector-effect:none;fill:#c7995a;fill-opacity:1;fill-rule:nonzero;stroke:none;stroke-width:1.76388884;stroke-linecap:square;stroke-linejoin:miter;stroke-miterlimit:4;stroke-dasharray:none;stroke-dashoffset:0;stroke-opacity:1;color-rendering:auto;image-rendering:auto;shape-rendering:auto;text-rendering:auto;enable-background:accumulate" />
      <path
         sodipodi:nodetypes="cssssssccccsccscssccc"
         inkscape:connector-curvature="0"
         id="path5153-3"
         d="m 45.313755,257 c 0,0.92581 -0.257508,1.55884 -0.6875,2.17578 -0.429992,0.61694 -1.057724,1.19435 -1.744141,1.84375 -1.372833,1.2988 -4.96875,3.01715 -4.96875,5.98047 0,2.96332 3.618073,4.59434 4.982422,5.83008 1.364349,1.23574 2.417969,2.06749 2.417969,4.16992 0,2.09851 -1.089006,3.06147 -2.453125,4.34375 -1.364119,1.28228 -4.653267,2.89033 -4.616537,5.66797 0.03663,2.76982 3.339303,4.27524 4.675131,5.49219 1.335827,1.21694 2.394531,2.1462 2.394531,4.49609 h 3.370071 c 0,-2.9442 -3.221154,-4.5655 -4.577102,-5.80078 -1.355949,-1.23528 -2.417182,-2.08374 -2.445313,-4.21094 -0.02803,-2.11938 1.046214,-3.08093 2.40625,-4.35937 1.360036,-1.27845 4.757906,-2.86735 4.757906,-5.62891 0,-2.75764 -3.40257,-4.26155 -4.746187,-5.47852 -1.343617,-1.21696 -2.417969,-2.1557 -2.417969,-4.52148 0,-2.36578 1.098461,-3.43608 2.433594,-4.69922 0.667566,-0.63157 1.39302,-1.27713 1.978516,-2.11719 0.585495,-0.84005 2.657552,-1.89782 2.657552,-3.18359 z"
         style="color:#000000;font-style:normal;font-variant:normal;font-weight:normal;font-stretch:normal;font-size:medium;line-height:normal;font-family:sans-serif;font-variant-ligatures:normal;font-variant-position:normal;font-variant-caps:normal;font-variant-numeric:normal;font-variant-alternates:normal;font-feature-settings:normal;text-indent:0;text-align:start;text-decoration:none;text-decoration-line:none;text-decoration-style:solid;text-decoration-color:#000000;letter-spacing:normal;word-spacing:normal;text-transform:none;writing-mode:lr-tb;direction:ltr;text-orientation:mixed;dominant-baseline:auto;baseline-shift:baseline;text-anchor:start;white-space:normal;shape-padding:0;clip-rule:nonzero;overflow:visible;visibility:visible;opacity:1;isolation:auto;mix-blend-mode:normal;color-interpolation:sRGB;color-interpolation-filters:linearRGB;solid-color:#000000;solid-opacity:1;vector-effect:none;fill:#c7995a;fill-opacity:1;fill-rule:nonzero;stroke:none;stroke-width:1.76388884;stroke-linecap:butt;stroke-linejoin:miter;stroke-miterlimit:4;stroke-dasharray:none;stroke-dashoffset:0;stroke-opacity:1;color-rendering:auto;image-rendering:auto;shape-rendering:auto;text-rendering:auto;enable-background:accumulate" />
    </g>
    <g
       id="g6595"
       style="opacity:0.644">
      <ellipse
         ry="0.45561379"
         rx="0.73719859"
         cy="261.17377"
         cx="1.9399111"
         id="path5198"
         style="opacity:0.594;fill:#e88f86;fill-opacity:1;stroke:none;stroke-width:0.19244145;stroke-linecap:square;stroke-linejoin:miter;stroke-miterlimit:4;stroke-dasharray:none;stroke-dashoffset:0;stroke-opacity:1" />
      <ellipse
         inkscape:spray-origin="#path5198"
         style="opacity:0.594;fill:#e8a786;fill-opacity:1;stroke:none;stroke-width:0.19244145;stroke-linecap:square;stroke-linejoin:miter;stroke-miterlimit:4;stroke-dasharray:none;stroke-dashoffset:0;stroke-opacity:1"
         id="ellipse6454"
         cx="6.9926572"
         cy="268.3869"
         rx="0.73719859"
         ry="0.45561379" />
      <ellipse
         inkscape:spray-origin="#path5198"
         style="opacity:0.594;fill:#e8d986;fill-opacity:1;stroke:none;stroke-width:0.19244145;stroke-linecap:square;stroke-linejoin:miter;stroke-miterlimit:4;stroke-dasharray:none;stroke-dashoffset:0;stroke-opacity:1"
         id="ellipse6456"
         cx="15.084697"
         cy="270.90756"
         rx="0.73719859"
         ry="0.45561379" />
      <ellipse
         inkscape:spray-origin="#path5198"
         style="opacity:0.594;fill:#e8a486;fill-opacity:1;stroke:none;stroke-width:0.19244145;stroke-linecap:square;stroke-linejoin:miter;stroke-miterlimit:4;stroke-dasharray:none;stroke-dashoffset:0;stroke-opacity:1"
         id="ellipse6458"
         cx="28.223909"
         cy="262.64786"
         rx="0.73719859"
         ry="0.45561379" />
      <ellipse
         inkscape:spray-origin="#path5198"
         style="opacity:0.594;fill:#e886b0;fill-opacity:1;stroke:none;stroke-width:0.19244145;stroke-linecap:square;stroke-linejoin:miter;stroke-miterlimit:4;stroke-dasharray:none;stroke-dashoffset:0;stroke-opacity:1"
         id="ellipse6460"
         cx="32.287498"
         cy="259.49292"
         rx="0.73719859"
         ry="0.45561379" />
      <ellipse
         inkscape:spray-origin="#path5198"
         style="opacity:0.594;fill:#e886a7;fill-opacity:1;stroke:none;stroke-width:0.19244145;stroke-linecap:square;stroke-linejoin:miter;stroke-miterlimit:4;stroke-dasharray:none;stroke-dashoffset:0;stroke-opacity:1"
         id="ellipse6462"
         cx="36.013504"
         cy="277.55988"
         rx="0.73719859"
         ry="0.45561379" />
      <ellipse
         inkscape:spray-origin="#path5198"
         style="opacity:0.594;fill:#e886ad;fill-opacity:1;stroke:none;stroke-width:0.19244145;stroke-linecap:square;stroke-linejoin:miter;stroke-miterlimit:4;stroke-dasharray:none;stroke-dashoffset:0;stroke-opacity:1"
         id="ellipse6464"
         cx="22.770582"
         cy="281.70819"
         rx="0.73719859"
         ry="0.45561379" />
      <ellipse
         inkscape:spray-origin="#path5198"
         style="opacity:0.594;fill:#e8a786;fill-opacity:1;stroke:none;stroke-width:0.19244145;stroke-linecap:square;stroke-linejoin:miter;stroke-miterlimit:4;stroke-dasharray:none;stroke-dashoffset:0;stroke-opacity:1"
         id="ellipse6466"
         cx="42.928864"
         cy="288.03946"
         rx="0.73719859"
         ry="0.45561379" />
      <ellipse
         inkscape:spray-origin="#path5198"
         style="opacity:0.594;fill:#e8b686;fill-opacity:1;stroke:none;stroke-width:0.19244145;stroke-linecap:square;stroke-linejoin:miter;stroke-miterlimit:4;stroke-dasharray:none;stroke-dashoffset:0;stroke-opacity:1"
         id="ellipse6468"
         cx="18.837093"
         cy="290.68509"
         rx="0.73719859"
         ry="0.45561379" />
      <ellipse
         inkscape:spray-origin="#path5198"
         style="opacity:0.594;fill:#e8a786;fill-opacity:1;stroke:none;stroke-width:0.19244145;stroke-linecap:square;stroke-linejoin:miter;stroke-miterlimit:4;stroke-dasharray:none;stroke-dashoffset:0;stroke-opacity:1"
         id="ellipse6470"
         cx="11.895829"
         cy="279.39243"
         rx="0.73719859"
         ry="0.45561379" />
      <ellipse
         inkscape:spray-origin="#path5198"
         style="opacity:0.594;fill:#e89286;fill-opacity:1;stroke:none;stroke-width:0.19244145;stroke-linecap:square;stroke-linejoin:miter;stroke-miterlimit:4;stroke-dasharray:none;stroke-dashoffset:0;stroke-opacity:1"
         id="ellipse6472"
         cx="8.8513565"
         cy="292.82449"
         rx="0.73719859"
         ry="0.45561379" />
      <ellipse
         inkscape:spray-origin="#path5198"
         style="opacity:0.594;fill:#e8bb86;fill-opacity:1;stroke:none;stroke-width:0.19244145;stroke-linecap:square;stroke-linejoin:miter;stroke-miterlimit:4;stroke-dasharray:none;stroke-dashoffset:0;stroke-opacity:1"
         id="ellipse6474"
         cx="42.144001"
         cy="267.43079"
         rx="0.73719859"
         ry="0.45561379" />
      <ellipse
         inkscape:spray-origin="#path5198"
         style="opacity:0.594;fill:#e8c486;fill-opacity:1;stroke:none;stroke-width:0.19244145;stroke-linecap:square;stroke-linejoin:miter;stroke-miterlimit:4;stroke-dasharray:none;stroke-dashoffset:0;stroke-opacity:1"
         id="ellipse6476"
         cx="2.5084441"
         cy="280.46317"
         rx="0.73719859"
         ry="0.45561379" />
      <ellipse
         inkscape:spray-origin="#path5198"
         style="opacity:0.594;fill:#e8cd86;fill-opacity:1;stroke:none;stroke-width:0.19244145;stroke-linecap:square;stroke-linejoin:miter;stroke-miterlimit:4;stroke-dasharray:none;stroke-dashoffset:0;stroke-opacity:1"
         id="ellipse6478"
         cx="33.089684"
         cy="290.94583"
         rx="0.73719859"
         ry="0.45561379" />
    </g>
  </g>
</svg>
