<?xml version="1.0" encoding="UTF-8" standalone="no"?>
<!-- Created with Inkscape (http://www.inkscape.org/) -->

<svg
   xmlns:dc="http://purl.org/dc/elements/1.1/"
   xmlns:cc="http://creativecommons.org/ns#"
   xmlns:rdf="http://www.w3.org/1999/02/22-rdf-syntax-ns#"
   xmlns:svg="http://www.w3.org/2000/svg"
   xmlns="http://www.w3.org/2000/svg"
   xmlns:xlink="http://www.w3.org/1999/xlink"
   xmlns:sodipodi="http://sodipodi.sourceforge.net/DTD/sodipodi-0.dtd"
   xmlns:inkscape="http://www.inkscape.org/namespaces/inkscape"
   width="400"
   height="400"
   viewBox="0 0 105.83333 105.83334"
   version="1.1"
   id="svg3150"
   inkscape:version="0.92.2 (5c3e80d, 2017-08-06)"
   sodipodi:docname="seaweed.svg">
  <defs
     id="defs3144" />
  <sodipodi:namedview
     id="base"
     pagecolor="#ffffff"
     bordercolor="#666666"
     borderopacity="1.0"
     inkscape:pageopacity="0.0"
     inkscape:pageshadow="2"
     inkscape:zoom="1.4142136"
     inkscape:cx="72.66451"
     inkscape:cy="192.4448"
     inkscape:document-units="mm"
     inkscape:current-layer="layer35"
     showgrid="false"
     inkscape:object-paths="true"
     inkscape:snap-nodes="false"
     inkscape:snap-object-midpoints="true"
     inkscape:window-width="1920"
     inkscape:window-height="1017"
     inkscape:window-x="1912"
     inkscape:window-y="-8"
     inkscape:window-maximized="1"
     inkscape:snap-others="false"
     units="px"
     inkscape:snap-midpoints="true" />
  <metadata
     id="metadata3147">
    <rdf:RDF>
      <cc:Work
         rdf:about="">
        <dc:format>image/svg+xml</dc:format>
        <dc:type
           rdf:resource="http://purl.org/dc/dcmitype/StillImage" />
        <dc:title></dc:title>
      </cc:Work>
    </rdf:RDF>
  </metadata>
  <g
     inkscape:label="sketch"
     inkscape:groupmode="layer"
     id="layer1"
     sodipodi:insensitive="true"
     style="display:none"
     transform="translate(0,-191.16666)">
    <image
       sodipodi:absref="C:\Users\mmblo\Downloads\crabAndSeagull.png"
       xlink:href="C:\Users\mmblo\Downloads\crabAndSeagull.png"
       transform="rotate(3.2450079)"
       width="481.54166"
       height="270.93332"
       preserveAspectRatio="none"
       id="image3703"
       x="-61.914848"
       y="27.694477" />
  </g>
  <g
     inkscape:groupmode="layer"
     id="layer32"
     inkscape:label="blade 1"
     style="display:inline;opacity:0.878">
    <g
       id="g6786">
      <path
         sodipodi:nodetypes="csssssccsssssc"
         inkscape:connector-curvature="0"
         id="path6735"
         d="m 36.750782,18.014065 c -5.143528,1.124806 -4.881909,9.212172 -5.7426,12.780911 -1.329839,5.513996 -6.215762,7.232525 -5.210699,12.686563 1.057394,5.738013 8.40803,7.190447 10.878707,12.384775 2.723584,5.726037 3.128491,9.900523 0.197318,15.451103 -2.88727,5.467445 -3.43149,14.806652 -1.18374,20.190695 1.018487,2.439588 5.011462,7.038668 5.398779,9.406988 l 8.741529,-0.21692 C 49.398088,93.549388 44.24273,90.669027 43.630248,84.374397 43.235704,80.319566 46.837487,73.420775 47.598721,69.510199 48.748835,63.601891 49.089662,60.050276 46.261173,54.674301 43.799015,49.994594 39.227009,46.991937 36.354428,42.68542 c -1.713525,-2.568884 0.77463,-8.047642 1.540365,-10.794401 1.231442,-4.417295 -2.812618,-11.35716 -1.144011,-13.876954 z"
         style="color:#000000;font-style:normal;font-variant:normal;font-weight:normal;font-stretch:normal;font-size:medium;line-height:normal;font-family:sans-serif;font-variant-ligatures:normal;font-variant-position:normal;font-variant-caps:normal;font-variant-numeric:normal;font-variant-alternates:normal;font-feature-settings:normal;text-indent:0;text-align:start;text-decoration:none;text-decoration-line:none;text-decoration-style:solid;text-decoration-color:#000000;letter-spacing:normal;word-spacing:normal;text-transform:none;writing-mode:lr-tb;direction:ltr;text-orientation:mixed;dominant-baseline:auto;baseline-shift:baseline;text-anchor:start;white-space:normal;shape-padding:0;clip-rule:nonzero;display:inline;overflow:visible;visibility:visible;opacity:1;isolation:auto;mix-blend-mode:normal;color-interpolation:sRGB;color-interpolation-filters:linearRGB;solid-color:#000000;solid-opacity:1;vector-effect:none;fill:#32c876;fill-opacity:1;fill-rule:nonzero;stroke:#1b6d45;stroke-width:0.70555556;stroke-linecap:butt;stroke-linejoin:round;stroke-miterlimit:4;stroke-dasharray:none;stroke-dashoffset:0;stroke-opacity:1;color-rendering:auto;image-rendering:auto;shape-rendering:auto;text-rendering:auto;enable-background:accumulate" />
      <path
         sodipodi:nodetypes="csssc"
         inkscape:connector-curvature="0"
         id="path6778"
         d="M 43.869401,101.19493 C 42.923946,92.389868 38.815703,89.427159 38.496876,82.946877 37.951876,71.869547 44.573478,70.401145 44.053125,63.764586 42.789745,47.651489 25.985892,46.732174 30.910856,37.983761 36.266216,28.470817 30.5759,23.781637 36.750782,18.014065"
         style="opacity:1;vector-effect:none;fill:none;fill-opacity:1;stroke:#1b6d45;stroke-width:0.70555556;stroke-linecap:butt;stroke-linejoin:round;stroke-miterlimit:4;stroke-dasharray:none;stroke-dashoffset:0;stroke-opacity:1" />
    </g>
  </g>
  <g
     inkscape:groupmode="layer"
     id="layer33"
     inkscape:label="blade 2"
     style="opacity:0.85500004">
    <g
       id="g6794">
      <path
         sodipodi:nodetypes="csssssccsssssc"
         inkscape:connector-curvature="0"
         id="path6735-0"
         d="m 83.386719,16.858206 c -1.529725,7.322155 -11.141401,12.796023 -11.240441,20.517137 -0.07151,5.574995 1.929174,10.255626 -2.091533,14.742155 -2.854658,3.185386 -8.179677,4.456992 -11.222635,7.49781 -6.146862,6.142538 -11.538311,14.646012 -6.730157,22.356309 1.832737,2.938955 4.717709,6.148047 5.662509,10.179498 0.793257,3.384816 -1.861226,8.152525 -1.861226,8.152525 l 7.28192,0.96564 c 2.60299,-5.668771 6.599505,-10.233071 4.289028,-15.645587 -1.35558,-3.175576 -7.63072,-7.557441 -6.963169,-11.258548 0.954063,-5.289616 3.577931,-10.293969 9.202115,-13.557564 5.340825,-3.099167 11.780514,-8.31104 12.926381,-14.350696 1.186064,-6.251528 -2.3348,-8.839509 1.03911,-14.566145 4.199055,-7.127177 5.323036,-11.780226 -0.291902,-15.032534 z"
         style="color:#000000;font-style:normal;font-variant:normal;font-weight:normal;font-stretch:normal;font-size:medium;line-height:normal;font-family:sans-serif;font-variant-ligatures:normal;font-variant-position:normal;font-variant-caps:normal;font-variant-numeric:normal;font-variant-alternates:normal;font-feature-settings:normal;text-indent:0;text-align:start;text-decoration:none;text-decoration-line:none;text-decoration-style:solid;text-decoration-color:#000000;letter-spacing:normal;word-spacing:normal;text-transform:none;writing-mode:lr-tb;direction:ltr;text-orientation:mixed;dominant-baseline:auto;baseline-shift:baseline;text-anchor:start;white-space:normal;shape-padding:0;clip-rule:nonzero;display:inline;overflow:visible;visibility:visible;opacity:1;isolation:auto;mix-blend-mode:normal;color-interpolation:sRGB;color-interpolation-filters:linearRGB;solid-color:#000000;solid-opacity:1;vector-effect:none;fill:#32c83b;fill-opacity:1;fill-rule:nonzero;stroke:#20802e;stroke-width:0.70555556;stroke-linecap:butt;stroke-linejoin:round;stroke-miterlimit:4;stroke-dasharray:none;stroke-dashoffset:0;stroke-opacity:1;color-rendering:auto;image-rendering:auto;shape-rendering:auto;text-rendering:auto;enable-background:accumulate" />
      <path
         sodipodi:nodetypes="cssssc"
         inkscape:connector-curvature="0"
         id="path6774"
         d="m 59.398958,100.80625 c 0.992809,-6.842193 4.819905,-8.561831 3.042708,-12.567706 -3.21574,-7.248412 -9.197872,-9.768074 -7.672917,-14.2875 5.955247,-17.649241 16.494248,-14.119243 21.828125,-24.473958 2.529462,-4.910473 0.290088,-10.861939 0.79375,-14.816667 0.520065,-4.083525 9.330983,-8.79597 5.996093,-17.802213"
         style="opacity:1;vector-effect:none;fill:none;fill-opacity:1;stroke:#20802e;stroke-width:0.70555556;stroke-linecap:butt;stroke-linejoin:round;stroke-miterlimit:4;stroke-dasharray:none;stroke-dashoffset:0;stroke-opacity:1" />
    </g>
  </g>
  <g
     inkscape:groupmode="layer"
     id="layer34"
     inkscape:label="blade 3"
     style="display:inline;opacity:0.76013513">
    <g
       id="g6790">
      <path
         sodipodi:nodetypes="cssssscccssssssssc"
         inkscape:connector-curvature="0"
         id="path6754"
         d="m 59.747266,3.7895835 c -1.206379,5.7577983 -3.299676,8.6196845 -8.066797,12.1906275 -5.023201,3.762764 -7.842569,8.283993 -6.423177,14.358594 0.882754,3.777942 3.368218,9.467815 5.20052,11.38164 4.352405,4.546053 4.496651,11.427107 1.302865,15.041146 -2.814102,3.184396 -6.543514,8.081518 -7.240625,12.315756 -1.123081,6.821572 5.665002,7.176698 6.06862,16.172395 0.580509,6.499945 -3.110502,7.426173 -2.390105,15.507298 l 7.319272,-0.43256 c 0.362916,-10.163332 5.860168,-8.826376 4.459895,-21.050519 -0.294695,-2.572637 -2.686589,-3.569033 -4.622786,-5.852864 -2.543461,-3.000126 -1.112849,-10.498243 2.552474,-14.559245 5.450366,-6.038744 6.537068,-13.158239 4.759766,-19.585938 -0.858048,-3.103167 -2.759767,-5.116191 -4.253907,-7.041016 -1.49414,-1.924824 -2.93906,-3.6428 -3.259765,-5.953124 -0.386875,-2.787007 1.914908,-5.357232 3.162109,-7.554688 1.058107,-1.864291 2.168869,-3.995014 2.669922,-6.546876 C 61.4866,9.6283474 61.229526,6.6233668 59.747266,3.7895835 Z"
         style="color:#000000;font-style:normal;font-variant:normal;font-weight:normal;font-stretch:normal;font-size:medium;line-height:normal;font-family:sans-serif;font-variant-ligatures:normal;font-variant-position:normal;font-variant-caps:normal;font-variant-numeric:normal;font-variant-alternates:normal;font-feature-settings:normal;text-indent:0;text-align:start;text-decoration:none;text-decoration-line:none;text-decoration-style:solid;text-decoration-color:#000000;letter-spacing:normal;word-spacing:normal;text-transform:none;writing-mode:lr-tb;direction:ltr;text-orientation:mixed;dominant-baseline:auto;baseline-shift:baseline;text-anchor:start;white-space:normal;shape-padding:0;clip-rule:nonzero;display:inline;overflow:visible;visibility:visible;opacity:1;isolation:auto;mix-blend-mode:normal;color-interpolation:sRGB;color-interpolation-filters:linearRGB;solid-color:#000000;solid-opacity:1;vector-effect:none;fill:#2caf2c;fill-opacity:1;fill-rule:nonzero;stroke:#1b6d25;stroke-width:0.70555556;stroke-linecap:butt;stroke-linejoin:round;stroke-miterlimit:4;stroke-dasharray:none;stroke-dashoffset:0;stroke-opacity:1;color-rendering:auto;image-rendering:auto;shape-rendering:auto;text-rendering:auto;enable-background:accumulate" />
      <path
         sodipodi:nodetypes="cssssc"
         inkscape:connector-curvature="0"
         id="path6776"
         d="M 52.525226,100.50133 C 50.529086,94.338227 54.950666,89.34755 55.423054,83.777433 55.951782,77.542988 49.235196,78.065607 48.840281,67.982812 48.518902,59.777511 59.524516,57.215102 58.605208,47.889586 57.44592,36.129699 49.367293,35.392458 49.212499,25.267711 49.109299,18.517601 60.828313,14.352756 59.747266,3.7895835"
         style="opacity:1;vector-effect:none;fill:none;fill-opacity:1;stroke:#1b6d25;stroke-width:0.70555556;stroke-linecap:butt;stroke-linejoin:round;stroke-miterlimit:4;stroke-dasharray:none;stroke-dashoffset:0;stroke-opacity:1" />
    </g>
  </g>
  <g
     inkscape:groupmode="layer"
     id="layer35"
     inkscape:label="blade 4"
     style="opacity:0.81400003">
    <g
       id="g6802">
      <path
         sodipodi:nodetypes="cssccssc"
         inkscape:connector-curvature="0"
         id="path6757"
         d="m 22.275391,61.532034 c 5.688619,9.116148 1.83359,14.430476 1.35612,20.165625 -0.238735,2.867575 0.499891,8.419725 2.710025,11.811589 2.496842,3.83187 3.885548,3.218868 8.501953,8.231652 l 7.438412,-0.54597 C 39.81316,93.471763 36.689481,91.070766 35.797396,88.453779 34.905312,85.836793 30.657255,80.18946 32.911719,76.727347 37.110994,70.278645 32.262965,61.631597 22.275391,61.532034 Z"
         style="color:#000000;font-style:normal;font-variant:normal;font-weight:normal;font-stretch:normal;font-size:medium;line-height:normal;font-family:sans-serif;font-variant-ligatures:normal;font-variant-position:normal;font-variant-caps:normal;font-variant-numeric:normal;font-variant-alternates:normal;font-feature-settings:normal;text-indent:0;text-align:start;text-decoration:none;text-decoration-line:none;text-decoration-style:solid;text-decoration-color:#000000;letter-spacing:normal;word-spacing:normal;text-transform:none;writing-mode:lr-tb;direction:ltr;text-orientation:mixed;dominant-baseline:auto;baseline-shift:baseline;text-anchor:start;white-space:normal;shape-padding:0;clip-rule:nonzero;display:inline;overflow:visible;visibility:visible;opacity:1;isolation:auto;mix-blend-mode:normal;color-interpolation:sRGB;color-interpolation-filters:linearRGB;solid-color:#000000;solid-opacity:1;vector-effect:none;fill:#32c837;fill-opacity:1;fill-rule:nonzero;stroke:#1b6d25;stroke-width:0.70555556;stroke-linecap:butt;stroke-linejoin:round;stroke-miterlimit:4;stroke-dasharray:none;stroke-dashoffset:0;stroke-opacity:1;color-rendering:auto;image-rendering:auto;shape-rendering:auto;text-rendering:auto;enable-background:accumulate" />
      <path
         sodipodi:nodetypes="csc"
         inkscape:connector-curvature="0"
         id="path6780"
         d="M 38.562695,101.46791 C 33.80482,91.926471 29.948943,93.068325 27.648958,82.550002 26.362464,76.666592 35.802265,68.107917 22.275391,61.532034"
         style="opacity:1;vector-effect:none;fill:none;fill-opacity:1;stroke:#1b6d25;stroke-width:0.70555556;stroke-linecap:butt;stroke-linejoin:round;stroke-miterlimit:4;stroke-dasharray:none;stroke-dashoffset:0;stroke-opacity:1" />
    </g>
  </g>
  <g
     inkscape:groupmode="layer"
     id="layer36"
     inkscape:label="blade 5"
     style="opacity:0.875">
    <g
       id="g6798">
      <path
         sodipodi:nodetypes="ssccsscs"
         inkscape:connector-curvature="0"
         id="path6760"
         d="m 75.312239,72.498831 c -1.738508,0.667255 -6.607854,4.629645 -7.41901,7.710287 -1.567775,5.95416 -10.7508,8.75614 -12.650912,20.590102 l 7.25573,0.54141 c 3.153042,-9.962046 6.811306,-11.480678 11.393359,-15.3362 2.291027,-1.927761 3.899346,-7.193989 5.822917,-9.409766 1.923572,-2.215777 5.267646,-4.665144 5.305208,-8.162239 -4.57374,2.48061 -5.070363,2.286712 -9.707292,4.066406 z"
         style="color:#000000;font-style:normal;font-variant:normal;font-weight:normal;font-stretch:normal;font-size:medium;line-height:normal;font-family:sans-serif;font-variant-ligatures:normal;font-variant-position:normal;font-variant-caps:normal;font-variant-numeric:normal;font-variant-alternates:normal;font-feature-settings:normal;text-indent:0;text-align:start;text-decoration:none;text-decoration-line:none;text-decoration-style:solid;text-decoration-color:#000000;letter-spacing:normal;word-spacing:normal;text-transform:none;writing-mode:lr-tb;direction:ltr;text-orientation:mixed;dominant-baseline:auto;baseline-shift:baseline;text-anchor:start;white-space:normal;shape-padding:0;clip-rule:nonzero;display:inline;overflow:visible;visibility:visible;opacity:1;isolation:auto;mix-blend-mode:normal;color-interpolation:sRGB;color-interpolation-filters:linearRGB;solid-color:#000000;solid-opacity:1;vector-effect:none;fill:#84c832;fill-opacity:1;fill-rule:nonzero;stroke:#346d1b;stroke-width:0.70555556;stroke-linecap:butt;stroke-linejoin:round;stroke-miterlimit:4;stroke-dasharray:none;stroke-dashoffset:0;stroke-opacity:1;color-rendering:auto;image-rendering:auto;shape-rendering:auto;text-rendering:auto;enable-background:accumulate" />
      <path
         sodipodi:nodetypes="csc"
         inkscape:connector-curvature="0"
         id="path6782"
         d="M 58.870183,101.06993 C 60.909862,90.265422 69.302293,88.90636 71.430851,82.602045 74.820737,72.561964 80.210078,74.535561 85.01953,68.432423"
         style="opacity:1;vector-effect:none;fill:none;fill-opacity:1;stroke:#346d1b;stroke-width:0.70555556;stroke-linecap:butt;stroke-linejoin:round;stroke-miterlimit:4;stroke-dasharray:none;stroke-dashoffset:0;stroke-opacity:1" />
    </g>
  </g>
</svg>
