<?xml version="1.0" encoding="UTF-8" standalone="no"?>
<!-- Created with Inkscape (http://www.inkscape.org/) -->

<svg
   xmlns:dc="http://purl.org/dc/elements/1.1/"
   xmlns:cc="http://creativecommons.org/ns#"
   xmlns:rdf="http://www.w3.org/1999/02/22-rdf-syntax-ns#"
   xmlns:svg="http://www.w3.org/2000/svg"
   xmlns="http://www.w3.org/2000/svg"
   xmlns:sodipodi="http://sodipodi.sourceforge.net/DTD/sodipodi-0.dtd"
   xmlns:inkscape="http://www.inkscape.org/namespaces/inkscape"
   width="100"
   height="100"
   viewBox="0 0 26.458333 26.458335"
   version="1.1"
   id="svg3150"
   inkscape:version="0.92.2 (5c3e80d, 2017-08-06)"
   sodipodi:docname="wook_plank.svg">
  <defs
     id="defs3144" />
  <sodipodi:namedview
     id="base"
     pagecolor="#ffffff"
     bordercolor="#666666"
     borderopacity="1.0"
     inkscape:pageopacity="0.0"
     inkscape:pageshadow="2"
     inkscape:zoom="4"
     inkscape:cx="125.15676"
     inkscape:cy="31.945625"
     inkscape:document-units="mm"
     inkscape:current-layer="layer39"
     showgrid="false"
     inkscape:object-paths="true"
     inkscape:snap-nodes="true"
     inkscape:snap-object-midpoints="true"
     inkscape:window-width="1920"
     inkscape:window-height="1017"
     inkscape:window-x="1912"
     inkscape:window-y="-8"
     inkscape:window-maximized="1"
     inkscape:snap-others="false"
     units="px"
     inkscape:snap-midpoints="true" />
  <metadata
     id="metadata3147">
    <rdf:RDF>
      <cc:Work
         rdf:about="">
        <dc:format>image/svg+xml</dc:format>
        <dc:type
           rdf:resource="http://purl.org/dc/dcmitype/StillImage" />
        <dc:title></dc:title>
      </cc:Work>
    </rdf:RDF>
  </metadata>
  <g
     inkscape:groupmode="layer"
     id="layer37"
     inkscape:label="plank light"
     transform="translate(0,-79.375)">
    <g
       id="g7186"
       transform="translate(-36.801671,59.18227)">
      <path
         sodipodi:nodetypes="cccccccccccccccccccccc"
         inkscape:connector-curvature="0"
         id="rect6974-0"
         d="m 39.114843,29.890386 h 20.98066 l -0.83522,0.83521 0.97039,1.07078 -1.11456,0.54173 1.67235,0.47851 -1.08695,1.24438 1.31281,0.74996 -0.49842,0.4944 0.74527,0.40237 -2.67305,1.1497 1.50738,1.31832 h -20.98066 l 1.29502,-1.30735 -0.9123,-0.72748 0.20777,-0.85512 -0.64148,-0.36134 1.30481,-0.45695 -0.69434,-0.49963 -0.75399,-0.76209 1.88165,-1.27748 z"
         style="opacity:1;vector-effect:none;fill:#eaceb7;fill-opacity:1;stroke:#834918;stroke-width:0.35299999;stroke-linecap:square;stroke-linejoin:round;stroke-miterlimit:4;stroke-dasharray:none;stroke-dashoffset:0;stroke-opacity:1" />
      <path
         inkscape:connector-curvature="0"
         id="path6985-7"
         d="m 41.847873,31.320456 c 0.0315,0.008 0.10237,-0.008 0.0945,0.0236 -0.008,0.0315 -0.12269,-0.0397 -0.0945,-0.0236 0.0826,0.0472 0.17346,0.0782 0.25985,0.11811 0.0159,0.007 0.0315,0.0159 0.0472,0.0236 0.0236,0.0159 0.0455,0.0346 0.0709,0.0473 0.0222,0.0111 0.0476,0.0148 0.0709,0.0236 0.0397,0.0148 0.0772,0.0361 0.11811,0.0472 0.0561,0.0154 0.29067,0.0425 0.33073,0.0472 0.20418,0.0241 0.2781,0.0311 0.49609,0.0473 0.11806,0.009 0.23625,0.0156 0.35436,0.0235 0.11025,0.008 0.22026,0.0196 0.33073,0.0236 0.11017,0.004 0.22047,0 0.33073,0 0.11025,0 0.22047,0 0.33073,0 0.32284,0 0.64571,0 0.96856,0 0.28347,0 0.56697,0 0.85045,0 0.17324,0 0.34652,0.004 0.51972,0 1.13519,-0.0241 0.0309,-0.019 1.25203,-0.0709 0.3969,-0.0169 0.52038,0.0251 0.92133,-0.0236 0.16709,-0.0204 0.33102,-0.0615 0.4961,-0.0945 0.0888,-0.0177 0.77644,-0.16261 0.87405,-0.18899 0.98674,-0.26668 -0.0346,-0.0132 0.80322,-0.28348 0.47173,-0.15219 0.27787,-0.0521 0.75594,-0.14174 0.12764,-0.0238 0.25199,-0.063 0.37799,-0.0945 0.14173,-0.0315 0.28231,-0.0688 0.42521,-0.0945 0.3366,-0.0604 0.56393,-0.0847 0.8977,-0.0945 0.42741,-0.0124 0.3555,-0.0148 0.75594,0.0709 0.10274,0.022 0.20744,0.0376 0.3071,0.0708 0.11722,0.0391 0.32782,0.15566 0.44887,0.21262 0.0702,0.033 0.14325,0.0598 0.21259,0.0945 0.10258,0.0513 0.14706,0.10414 0.25988,0.14174 0.0454,0.0151 0.095,0.0132 0.14173,0.0235 0.0243,0.005 0.0463,0.0196 0.0709,0.0236 0.0265,0.004 0.14362,-0.007 0.16536,0 0.0106,0.003 0.0143,0.0175 0.0236,0.0236 0.11936,0.0796 0,1.9e-4 0.0709,0.0236 0.0167,0.006 0.0309,0.0172 0.0473,0.0236 0.0153,0.006 0.0996,0.0288 0.11811,0.0472 0.0201,0.0201 0.0272,0.0508 0.0473,0.0709 0.0489,0.0489 -0.003,-0.0747 0.0472,0.0235 0.007,0.014 -0.007,0.0332 0,0.0473 0.005,0.01 0.0188,0.0138 0.0236,0.0236 0.003,0.007 0,0.0156 0,0.0235 0,0.0923 0.007,0.003 -0.0236,0.0945 -0.0391,0.11715 0.0114,0.0769 -0.0709,0.11811"
         style="fill:none;stroke:#d29563;stroke-width:0.26458332px;stroke-linecap:butt;stroke-linejoin:miter;stroke-opacity:1" />
      <path
         inkscape:connector-curvature="0"
         id="path6987-7"
         d="m 42.698293,33.422936 c 0.0315,0 0.0945,-0.0315 0.0945,0 0,0.0271 -0.50115,-0.0648 0.11811,0.0236 0.0398,0.006 0.0785,0.0169 0.11811,0.0236 0.0978,0.0164 0.25882,0.0353 0.35436,0.0473 0.063,0.008 0.1256,0.0204 0.18899,0.0236 0.0944,0.005 0.18907,-0.004 0.28348,0 0.0947,0.004 0.18875,0.0196 0.2835,0.0236 0.0944,0.004 0.18899,0 0.28347,0 0.11025,0 0.22048,0 0.33073,0 0.11025,0 0.22056,0.004 0.33073,0 0.76779,-0.0274 -0.12121,-0.0212 0.68508,-0.0473 0.12592,-0.004 0.25215,0.007 0.37799,0 0.1737,-0.009 0.34613,-0.0357 0.51969,-0.0472 0.1809,-0.0122 0.36238,-0.013 0.54335,-0.0236 0.22066,-0.013 0.44074,-0.0354 0.66146,-0.0472 0.22032,-0.0119 0.44111,-0.0127 0.66146,-0.0235 0.26003,-0.0127 0.51938,-0.0386 0.77957,-0.0473 0.21251,-0.007 0.42523,0 0.63785,0 0.19685,0 0.39373,0 0.59058,0 0.14962,0 0.29924,0 0.44884,0 0.13388,0 0.26781,-0.004 0.40161,0 0.55782,0.0164 0.24665,0.0233 0.8032,0.0709 0.14144,0.0122 0.28344,0.0161 0.42521,0.0236 0.15748,0.008 0.31557,0.008 0.47249,0.0236 0.15846,0.0159 0.31414,0.0538 0.47247,0.0709 0.0589,0.006 0.78054,0.0433 0.82682,0.0473 0.1343,0.0116 0.26734,0.0354 0.40158,0.0472 0.13359,0.0119 0.26758,0.0193 0.40162,0.0236 0.20462,0.006 0.40946,0 0.6142,0 0.17325,0 0.34647,0 0.51972,0 0.0551,0 0.11044,0.005 0.16537,0 0.04,-0.003 0.0787,-0.0156 0.11811,-0.0236 0.0394,-0.008 0.0795,-0.0127 0.11813,-0.0235 0.0169,-0.005 0.03,-0.0201 0.0472,-0.0236 0.0233,-0.005 0.0477,0.005 0.0709,0 0.0172,-0.003 0.0315,-0.0159 0.0473,-0.0236 0.0315,-0.0159 0.0611,-0.0361 0.0945,-0.0472 0.007,-0.003 0.018,0.006 0.0236,0 0.006,-0.006 -0.006,-0.018 0,-0.0236 0.0153,-0.0154 0.10705,-0.0454 0.11811,-0.0473 0.0233,-0.004 0.0475,0.003 0.0709,0 0.0322,-0.005 0.0623,-0.0196 0.0945,-0.0236 0.0312,-0.004 0.063,0 0.0945,0 0.0394,0 0.0787,0 0.11811,0 0.0156,0 0.0315,0 0.0473,0 0.008,0 0.0201,-0.007 0.0235,0 0.007,0.014 -0.007,0.0332 0,0.0472 0.007,0.014 0.0361,-0.0111 0.0473,0 0,0 0,0.0651 0,0.0709"
         style="fill:none;stroke:#d29563;stroke-width:0.26458332px;stroke-linecap:butt;stroke-linejoin:miter;stroke-opacity:1" />
      <path
         inkscape:connector-curvature="0"
         id="path6989-8"
         d="m 39.705333,35.285786 c 0.099,0.11105 0.0482,0.0784 0.13454,0.12153 0.0159,0.008 0.0299,0.0206 0.0472,0.0236 0.0311,0.005 0.0633,-0.005 0.0945,0 0.0246,0.003 0.0466,0.0183 0.0709,0.0235 0.0468,0.0103 0.0946,0.0151 0.14176,0.0236 0.0395,0.007 0.0786,0.0164 0.11811,0.0236 0.0471,0.008 0.0948,0.0143 0.14174,0.0236 0.0318,0.006 0.0628,0.0167 0.0945,0.0236 0.0392,0.009 0.0788,0.0159 0.11814,0.0235 0.0394,0.008 0.0781,0.0201 0.11811,0.0236 0.047,0.004 0.0946,-0.004 0.14174,0 0.44481,0.0635 -0.0877,-0.005 0.3071,0.0236 0.0633,0.005 0.12565,0.0193 0.18899,0.0236 0.055,0.004 0.11025,0 0.16537,0 0.0551,0 0.11025,0 0.16536,0 0.0472,0 0.0947,0.004 0.14174,0 0.04,-0.004 0.0785,-0.0169 0.11813,-0.0236 0.0549,-0.009 0.11023,-0.0156 0.16537,-0.0236 0.22045,-0.0315 0.44225,-0.0546 0.66146,-0.0945 0.0395,-0.007 0.0786,-0.0164 0.11811,-0.0236 0.0471,-0.008 0.0953,-0.0119 0.14173,-0.0236 0.0483,-0.0122 0.0937,-0.0341 0.14174,-0.0473 0.14571,-0.0397 0.30038,-0.0461 0.44884,-0.0709 0.0792,-0.0132 0.15642,-0.0384 0.23625,-0.0473 0.0313,-0.003 0.063,0 0.0945,0 0.0473,0 0.0945,0 0.14176,0 0.0236,0 0.0472,0 0.0709,0 0.0236,0 0.0476,-0.004 0.0709,0 0.0983,0.0164 0.041,0.0214 0.11811,0.0473 0.007,0.003 0.0167,-0.003 0.0236,0 0.0198,0.0101 0.0262,0.0402 0.0473,0.0473 1.1e-4,2e-5 0.0708,-3e-5 0.0709,0 0.006,0.006 0.008,0.0235 0,0.0235 -0.008,0 0,-0.0159 0,-0.0235"
         style="fill:none;stroke:#d29563;stroke-width:0.26458332px;stroke-linecap:butt;stroke-linejoin:miter;stroke-opacity:1" />
      <path
         inkscape:connector-curvature="0"
         id="path6991-6"
         d="m 50.305063,34.674996 c 0.0159,0.0315 0.0788,0.0787 0.0473,0.0945 -0.0315,0.0159 -0.0148,-0.10835 -0.0473,-0.0945 -0.11305,0.0485 -0.17568,0.17696 -0.28347,0.23622 -0.0556,0.0306 -0.12605,0.0154 -0.18899,0.0236 -0.0552,0.007 -0.1098,0.0199 -0.16537,0.0236 -0.0628,0.004 -0.12599,0 -0.18899,0 -0.063,0 -0.12597,0 -0.18896,0 -0.063,0 -0.126,0 -0.189,0 -0.063,0 -0.1261,0.004 -0.18899,0 -0.27577,-0.0161 -0.12959,-0.0164 -0.33073,-0.0472 -0.20251,-0.0312 -0.19394,-0.0117 -0.40161,-0.0709 -0.0408,-0.0116 -0.0783,-0.0328 -0.11811,-0.0472 -0.29779,-0.0993 0.003,0.004 -0.25985,-0.0945 -0.0439,-0.0164 -0.0795,-0.0214 -0.11813,-0.0472 -0.009,-0.006 -0.0138,-0.0185 -0.0236,-0.0236 -0.0222,-0.0111 -0.0486,-0.0124 -0.0709,-0.0236 -0.0101,-0.005 -0.0138,-0.0185 -0.0235,-0.0236 -0.014,-0.007 -0.0361,0.0111 -0.0473,0 -0.006,-0.006 -0.003,-0.0167 0,-0.0235 0.005,-0.0101 0.0159,-0.0159 0.0236,-0.0236 0.0595,-0.0595 0.0387,-0.0448 0.11811,-0.0945 0.13073,-0.0817 0.11467,-0.0691 0.25987,-0.14174 0.10832,-0.0542 0.21151,-0.11192 0.33073,-0.14174 0.0616,-0.0153 0.12637,-0.0132 0.18899,-0.0235 0.0792,-0.0132 0.1569,-0.0347 0.23622,-0.0473 0.0704,-0.0111 0.14172,-0.0161 0.21262,-0.0236 0.37926,-0.0399 0.0937,-0.006 0.42522,-0.0472 0.063,-0.008 0.12607,-0.0154 0.18899,-0.0236 0.0552,-0.007 0.10983,-0.0196 0.16536,-0.0236 0.055,-0.004 0.11039,0.004 0.16537,0 0.55443,-0.0396 -0.26183,-0.009 0.35435,-0.0472 0.0629,-0.004 0.126,0 0.189,0 0.11025,0 0.22047,0 0.33072,0 0.11026,0 0.22048,0 0.33073,0 0.0473,0 0.0947,-0.004 0.14174,0 0.04,0.004 0.0786,0.0164 0.11811,0.0236 0.0472,0.008 0.0946,0.0151 0.14176,0.0235 0.29218,0.0531 0.57865,0.12992 0.87406,0.16537 0.0942,0.0114 0.18896,0.0161 0.2835,0.0236 0.4926,0.0394 0.12684,0.009 0.66145,0.0472 0.71962,0.0514 -0.13557,-0.0116 0.66146,0.0709 0.10994,0.0114 0.22045,0.0161 0.33073,0.0236 0.20278,0.014 0.53213,0.0355 0.73232,0.0472 0.14171,0.008 0.28374,0.0122 0.42523,0.0236 0.14994,0.0122 0.29885,0.0357 0.44884,0.0472 0.15722,0.0122 0.31552,0.008 0.47247,0.0235 0.16626,0.0161 0.32996,0.0534 0.49609,0.0709 0.13335,0.014 0.26774,0.0156 0.40161,0.0235 0.13386,0.008 0.26755,0.0193 0.40159,0.0236 0.11806,0.004 0.23625,0 0.35436,0 0.12599,0 0.25198,0 0.37798,0 0.58272,0 1.16541,0 1.74813,0"
         style="fill:none;stroke:#d29563;stroke-width:0.26458332px;stroke-linecap:butt;stroke-linejoin:miter;stroke-opacity:1" />
      <path
         inkscape:connector-curvature="0"
         id="path6993-3"
         d="m 58.588113,36.857416 c 0.0266,-0.0188 0.0609,-0.0829 0.0797,-0.0563 0.0188,0.0266 -0.0475,0.0612 -0.0797,0.0563 -0.0823,-0.0127 -0.14909,-0.0752 -0.22741,-0.10356 -0.0611,-0.022 -0.12599,-0.0315 -0.188989,-0.0472 -0.063,-0.0159 -0.125311,-0.0345 -0.188991,-0.0472 -0.0939,-0.0188 -0.190789,-0.023 -0.28348,-0.0473 -0.0892,-0.0233 -0.16949,-0.0764 -0.25987,-0.0945 -0.10838,-0.0217 -0.2208,-0.0122 -0.33073,-0.0236 -0.3243,-0.0335 -0.3343,-0.0582 -0.63783,-0.0709 -0.0944,-0.004 -0.18899,0 -0.28348,0 -0.23624,0 -0.47246,0 -0.70871,0 -0.22048,0 -0.44095,0 -0.66146,0 -0.0866,0 -0.17322,0 -0.25985,0 -0.0394,0 -0.079,-0.005 -0.11813,0 -0.0246,0.003 -0.0463,0.0196 -0.0709,0.0236 -0.0233,0.004 -0.0472,0 -0.0709,0 -0.0236,0 -0.0472,0 -0.0709,0 -0.0315,0 -0.0633,-0.005 -0.0945,0 -0.0246,0.003 -0.0465,0.0183 -0.0709,0.0236 -0.18957,0.0421 -0.0879,0.004 -0.25987,0.0472 -0.0556,0.0138 -0.1093,0.0352 -0.16537,0.0472 -0.0544,0.0116 -0.11051,0.014 -0.16536,0.0236 -0.0791,0.014 -0.1569,0.0347 -0.23622,0.0473 -0.0871,0.0138 -0.43379,0.0448 -0.4961,0.0473 -0.10228,0.004 -0.20473,0 -0.3071,0 -0.11025,0 -0.2205,0 -0.33073,0 -0.10236,0 -0.20484,0.004 -0.30712,0 -0.36066,-0.0145 -0.18722,-0.0148 -0.4961,-0.0709 -0.10189,-0.0185 -0.20447,-0.0333 -0.3071,-0.0473 -0.0706,-0.01 -0.14282,-0.009 -0.21259,-0.0236 -0.19188,-0.0404 -0.24831,-0.0828 -0.42524,-0.14176 -0.0655,-0.0217 -0.29364,-0.0823 -0.35436,-0.0945 -0.0546,-0.0109 -0.11022,-0.0156 -0.16536,-0.0236 -0.0551,-0.008 -0.11023,-0.0156 -0.16537,-0.0236 -0.18087,-0.0259 -0.36203,-0.0482 -0.54332,-0.0708 -0.22079,-0.0276 -0.44249,-0.0547 -0.66146,-0.0945 -0.14081,-0.0257 -0.28231,-0.0589 -0.42524,-0.0709 -0.0392,-0.003 -0.0787,0 -0.11811,0 -0.14173,0 -0.28347,0 -0.42523,0 -0.0551,0 -0.11023,0 -0.16537,0 -0.063,0 -0.1261,-0.004 -0.18896,0 -0.0458,0.003 -0.30017,0.0389 -0.35436,0.0472 -0.0474,0.007 -0.0941,0.0183 -0.14174,0.0236 -0.0236,0.003 -0.0472,0 -0.0709,0 -0.008,0 -0.018,-0.006 -0.0236,0 -0.006,0.006 0.008,0.0235 0,0.0235 -0.008,0 0,-0.0156 0,-0.0235"
         style="fill:none;stroke:#d29563;stroke-width:0.26458332px;stroke-linecap:butt;stroke-linejoin:miter;stroke-opacity:1" />
      <path
         inkscape:connector-curvature="0"
         id="path6995-5"
         d="m 40.409863,36.868396 c 0.24278,0.13168 0.28564,0.23693 0.49305,0.21619 0.0477,-0.005 0.0945,-0.0156 0.14174,-0.0236 0.0945,-0.0159 0.18843,-0.0353 0.2835,-0.0472 0.27098,-0.0339 0.22878,-0.0161 0.51972,-0.0472 0.12623,-0.0135 0.25138,-0.0375 0.37796,-0.0472 0.41828,-0.0322 0.71146,-0.0236 1.13392,-0.0236 0.38587,0 0.77171,0 1.15755,0 0.11026,0 0.22059,-0.005 0.33073,0 0.006,2.4e-4 0.37209,0.0295 0.42524,0.0472 0.0212,0.007 0.0287,0.0349 0.0473,0.0473 0.007,0.004 0.018,-0.006 0.0235,0 0.006,0.006 0,0.0156 0,0.0235 0,0.0236 -0.009,0.0489 0,0.0709 0.008,0.0206 0.0315,0.0315 0.0473,0.0472 0.0159,0.0156 0.0315,0.0315 0.0472,0.0473 0.0236,0.0236 0.0431,0.0523 0.0709,0.0708 0.0206,0.0138 0.0472,0.0159 0.0709,0.0236 0.0236,0.008 0.0466,0.0183 0.0709,0.0236 0.21003,0.0467 0.0724,0.008 0.28348,0.0236 0.0633,0.005 0.12589,0.0167 0.18899,0.0236 0.0787,0.009 0.15758,0.0148 0.23622,0.0235 0.1262,0.014 0.25212,0.0305 0.37798,0.0472 0.0552,0.007 0.10996,0.018 0.16537,0.0236 0.0235,0.003 0.0472,0 0.0709,0 0.0331,0 0.10157,0 0.11811,0 0.0394,0 0.0787,0 0.11811,0 0.0236,0 0.0476,0.004 0.0709,0 0.0246,-0.004 0.0472,-0.0156 0.0709,-0.0236 0.0315,0 0.0633,0.005 0.0945,0 0.0246,-0.003 0.0469,-0.0167 0.0709,-0.0236 0.0312,-0.009 0.0633,-0.0148 0.0945,-0.0235 0.0241,-0.007 0.0464,-0.0188 0.0708,-0.0236 0.0257,-0.005 0.14013,0 0.16537,0 0.14962,0 0.29924,0 0.44887,0"
         style="fill:none;stroke:#d29563;stroke-width:0.26458332px;stroke-linecap:butt;stroke-linejoin:miter;stroke-opacity:1" />
    </g>
  </g>
  <g
     inkscape:groupmode="layer"
     id="layer38"
     inkscape:label="plank mid">
    <g
       id="g7167"
       transform="translate(-51.266241,-35.07626)">
      <path
         sodipodi:nodetypes="cccccccccccccccccccccc"
         inkscape:connector-curvature="0"
         id="rect6974-0-3"
         d="m 53.579413,44.773916 h 20.98066 l -0.83522,0.83521 0.970391,1.07078 -1.11456,0.54173 1.672349,0.47851 -1.086951,1.24438 1.312813,0.74996 -0.498422,0.4944 0.74527,0.40237 -2.673048,1.1497 1.507378,1.31832 h -20.98066 l 1.29502,-1.30735 -0.9123,-0.72748 0.20777,-0.85512 -0.64148,-0.36134 1.30481,-0.45695 -0.69434,-0.49963 -0.75399,-0.76209 1.88165,-1.27748 z"
         style="opacity:1;vector-effect:none;fill:#b87f66;fill-opacity:1;stroke:#3d220b;stroke-width:0.35299999;stroke-linecap:square;stroke-linejoin:round;stroke-miterlimit:4;stroke-dasharray:none;stroke-dashoffset:0;stroke-opacity:1" />
      <path
         inkscape:connector-curvature="0"
         id="path6985-7-5"
         d="m 56.312443,46.203986 c 0.0315,0.008 0.10237,-0.008 0.0945,0.0236 -0.008,0.0315 -0.12269,-0.0397 -0.0945,-0.0236 0.0826,0.0472 0.17346,0.0782 0.25985,0.11811 0.0159,0.007 0.0315,0.0159 0.0472,0.0236 0.0236,0.0159 0.0455,0.0346 0.0709,0.0473 0.0222,0.0111 0.0476,0.0148 0.0709,0.0236 0.0397,0.0148 0.0772,0.0361 0.11811,0.0472 0.0561,0.0154 0.29067,0.0425 0.33073,0.0472 0.20418,0.0241 0.2781,0.0311 0.49609,0.0473 0.11806,0.009 0.23625,0.0156 0.35436,0.0235 0.110251,0.008 0.22026,0.0196 0.33073,0.0236 0.11017,0.004 0.22047,0 0.33073,0 0.11025,0 0.22047,0 0.33073,0 0.32284,0 0.64571,0 0.96856,0 0.28347,0 0.56697,0 0.850451,0 0.173239,0 0.346519,0.004 0.519719,0 1.135191,-0.0241 0.0309,-0.019 1.252031,-0.0709 0.396899,-0.0169 0.520379,0.0251 0.921329,-0.0236 0.16709,-0.0204 0.33102,-0.0615 0.4961,-0.0945 0.0888,-0.0177 0.77644,-0.16261 0.874051,-0.18899 0.986739,-0.26668 -0.0346,-0.0132 0.803219,-0.28348 0.471731,-0.15219 0.27787,-0.0521 0.755941,-0.14174 0.12764,-0.0238 0.251989,-0.063 0.377989,-0.0945 0.141729,-0.0315 0.28231,-0.0688 0.425212,-0.0945 0.336597,-0.0604 0.563927,-0.0847 0.897699,-0.0945 0.427411,-0.0124 0.3555,-0.0148 0.755939,0.0709 0.10274,0.022 0.207441,0.0376 0.307101,0.0708 0.117219,0.0391 0.327819,0.15566 0.448869,0.21262 0.0702,0.033 0.14325,0.0598 0.21259,0.0945 0.102581,0.0513 0.147061,0.10414 0.259882,0.14174 0.0454,0.0151 0.095,0.0132 0.141729,0.0235 0.02429,0.005 0.0463,0.0196 0.0709,0.0236 0.0265,0.004 0.143619,-0.007 0.16536,0 0.01061,0.003 0.01431,0.0175 0.0236,0.0236 0.119359,0.0796 0,1.9e-4 0.0709,0.0236 0.0167,0.006 0.0309,0.0172 0.0473,0.0236 0.01529,0.006 0.0996,0.0288 0.11811,0.0472 0.02011,0.0201 0.0272,0.0508 0.0473,0.0709 0.0489,0.0489 -0.003,-0.0747 0.0472,0.0235 0.007,0.014 -0.007,0.0332 0,0.0473 0.005,0.01 0.01881,0.0138 0.0236,0.0236 0.003,0.007 0,0.0156 0,0.0235 0,0.0923 0.007,0.003 -0.0236,0.0945 -0.0391,0.117149 0.0114,0.0769 -0.0709,0.11811"
         style="fill:none;stroke:#975f46;stroke-width:0.26458332px;stroke-linecap:butt;stroke-linejoin:miter;stroke-opacity:1" />
      <path
         inkscape:connector-curvature="0"
         id="path6987-7-0"
         d="m 57.162863,48.306466 c 0.0315,0 0.0945,-0.0315 0.0945,0 0,0.0271 -0.50115,-0.0648 0.11811,0.0236 0.0398,0.006 0.0785,0.0169 0.11811,0.0236 0.0978,0.0164 0.25882,0.0353 0.35436,0.0473 0.063,0.008 0.125601,0.0204 0.18899,0.0236 0.0944,0.005 0.18907,-0.004 0.28348,0 0.0947,0.004 0.18875,0.0196 0.2835,0.0236 0.0944,0.004 0.18899,0 0.28347,0 0.11025,0 0.22048,0 0.33073,0 0.11025,0 0.22056,0.004 0.33073,0 0.76779,-0.0274 -0.12121,-0.0212 0.68508,-0.0473 0.12592,-0.004 0.25215,0.007 0.37799,0 0.1737,-0.009 0.346131,-0.0357 0.51969,-0.0472 0.1809,-0.0122 0.362381,-0.013 0.54335,-0.0236 0.22066,-0.013 0.44074,-0.0354 0.66146,-0.0472 0.220321,-0.0119 0.441111,-0.0127 0.66146,-0.0235 0.26003,-0.0127 0.51938,-0.0386 0.779571,-0.0473 0.212509,-0.007 0.425229,0 0.637849,0 0.19685,0 0.39373,0 0.59058,0 0.149621,0 0.299239,0 0.44884,0 0.133879,0 0.267811,-0.004 0.401611,0 0.557819,0.0164 0.24665,0.0233 0.803198,0.0709 0.141441,0.0122 0.283441,0.0161 0.425212,0.0236 0.15748,0.008 0.315569,0.008 0.472491,0.0236 0.158459,0.0159 0.314139,0.0538 0.472469,0.0709 0.0589,0.006 0.780539,0.0433 0.82682,0.0473 0.1343,0.0116 0.26734,0.0354 0.401579,0.0472 0.133591,0.0119 0.267581,0.0193 0.401619,0.0236 0.204621,0.006 0.409462,0 0.614201,0 0.17325,0 0.34647,0 0.519721,0 0.0551,0 0.11044,0.005 0.16537,0 0.04,-0.003 0.0787,-0.0156 0.11811,-0.0236 0.0394,-0.008 0.0795,-0.0127 0.118129,-0.0235 0.01691,-0.005 0.03,-0.0201 0.0472,-0.0236 0.02331,-0.005 0.0477,0.005 0.0709,0 0.0172,-0.003 0.0315,-0.0159 0.0473,-0.0236 0.0315,-0.0159 0.0611,-0.0361 0.0945,-0.0472 0.007,-0.003 0.01799,0.006 0.0236,0 0.006,-0.006 -0.006,-0.018 0,-0.0236 0.01529,-0.0154 0.10705,-0.0454 0.11811,-0.0473 0.02331,-0.004 0.0475,0.003 0.0709,0 0.0322,-0.005 0.0623,-0.0196 0.0945,-0.0236 0.0312,-0.004 0.063,0 0.0945,0 0.0394,0 0.0787,0 0.11811,0 0.01561,0 0.0315,0 0.0473,0 0.008,0 0.02011,-0.007 0.0235,0 0.007,0.014 -0.007,0.0332 0,0.0472 0.007,0.014 0.0361,-0.0111 0.0473,0 0,0 0,0.0651 0,0.0709"
         style="fill:none;stroke:#975f46;stroke-width:0.26458332px;stroke-linecap:butt;stroke-linejoin:miter;stroke-opacity:1" />
      <path
         inkscape:connector-curvature="0"
         id="path6989-8-5"
         d="m 54.169903,50.169316 c 0.099,0.11105 0.0482,0.0784 0.13454,0.12153 0.0159,0.008 0.0299,0.0206 0.0472,0.0236 0.0311,0.005 0.0633,-0.005 0.0945,0 0.0246,0.003 0.0466,0.0183 0.0709,0.0235 0.0468,0.0103 0.0946,0.0151 0.14176,0.0236 0.0395,0.007 0.0786,0.0164 0.11811,0.0236 0.0471,0.008 0.0948,0.0143 0.14174,0.0236 0.0318,0.006 0.0628,0.0167 0.0945,0.0236 0.0392,0.009 0.0788,0.0159 0.11814,0.0235 0.0394,0.008 0.0781,0.0201 0.11811,0.0236 0.047,0.004 0.0946,-0.004 0.14174,0 0.44481,0.0635 -0.0877,-0.005 0.3071,0.0236 0.0633,0.005 0.12565,0.0193 0.18899,0.0236 0.055,0.004 0.11025,0 0.16537,0 0.0551,0 0.11025,0 0.16536,0 0.0472,0 0.0947,0.004 0.14174,0 0.04,-0.004 0.0785,-0.0169 0.11813,-0.0236 0.0549,-0.009 0.11023,-0.0156 0.16537,-0.0236 0.22045,-0.0315 0.44225,-0.0546 0.66146,-0.0945 0.0395,-0.007 0.0786,-0.0164 0.11811,-0.0236 0.0471,-0.008 0.0953,-0.0119 0.14173,-0.0236 0.0483,-0.0122 0.0937,-0.0341 0.14174,-0.0473 0.14571,-0.0397 0.30038,-0.0461 0.44884,-0.0709 0.0792,-0.0132 0.15642,-0.0384 0.23625,-0.0473 0.0313,-0.003 0.063,0 0.0945,0 0.0473,0 0.0945,0 0.141761,0 0.0236,0 0.0472,0 0.0709,0 0.0236,0 0.0476,-0.004 0.0709,0 0.0983,0.0164 0.041,0.0214 0.118109,0.0473 0.007,0.003 0.0167,-0.003 0.0236,0 0.0198,0.0101 0.0262,0.0402 0.0473,0.0473 1.1e-4,2e-5 0.0708,-3e-5 0.0709,0 0.006,0.006 0.008,0.0235 0,0.0235 -0.008,0 0,-0.0159 0,-0.0235"
         style="fill:none;stroke:#975f46;stroke-width:0.26458332px;stroke-linecap:butt;stroke-linejoin:miter;stroke-opacity:1" />
      <path
         inkscape:connector-curvature="0"
         id="path6991-6-6"
         d="m 64.769633,49.558526 c 0.0159,0.0315 0.0788,0.0787 0.0473,0.0945 -0.0315,0.0159 -0.0148,-0.10835 -0.0473,-0.0945 -0.113049,0.0485 -0.17568,0.17696 -0.283469,0.23622 -0.0556,0.0306 -0.126051,0.0154 -0.18899,0.0236 -0.0552,0.007 -0.1098,0.0199 -0.165371,0.0236 -0.0628,0.004 -0.12599,0 -0.18899,0 -0.063,0 -0.12597,0 -0.188959,0 -0.063,0 -0.126001,0 -0.189001,0 -0.063,0 -0.126099,0.004 -0.18899,0 -0.27577,-0.0161 -0.12959,-0.0164 -0.33073,-0.0472 -0.20251,-0.0312 -0.19394,-0.0117 -0.40161,-0.0709 -0.0408,-0.0116 -0.0783,-0.0328 -0.11811,-0.0472 -0.29779,-0.0993 0.003,0.004 -0.259849,-0.0945 -0.0439,-0.0164 -0.0795,-0.0214 -0.118131,-0.0472 -0.009,-0.006 -0.0138,-0.0185 -0.0236,-0.0236 -0.0222,-0.0111 -0.0486,-0.0124 -0.0709,-0.0236 -0.0101,-0.005 -0.0138,-0.0185 -0.0235,-0.0236 -0.014,-0.007 -0.0361,0.0111 -0.0473,0 -0.006,-0.006 -0.003,-0.0167 0,-0.0235 0.005,-0.0101 0.0159,-0.0159 0.0236,-0.0236 0.0595,-0.0595 0.0387,-0.0448 0.11811,-0.0945 0.13073,-0.0817 0.11467,-0.0691 0.25987,-0.14174 0.10832,-0.0542 0.21151,-0.11192 0.33073,-0.14174 0.0616,-0.0153 0.12637,-0.0132 0.18899,-0.0235 0.0792,-0.0132 0.1569,-0.0347 0.23622,-0.0473 0.0704,-0.0111 0.14172,-0.0161 0.21262,-0.0236 0.37926,-0.0399 0.0937,-0.006 0.42522,-0.0472 0.063,-0.008 0.12607,-0.0154 0.18899,-0.0236 0.0552,-0.007 0.10983,-0.0196 0.16536,-0.0236 0.055,-0.004 0.11039,0.004 0.16537,0 0.55443,-0.0396 -0.26183,-0.009 0.35435,-0.0472 0.0629,-0.004 0.126,0 0.189,0 0.11025,0 0.22047,0 0.33072,0 0.11026,0 0.220481,0 0.33073,0 0.0473,0 0.0947,-0.004 0.14174,0 0.04,0.004 0.0786,0.0164 0.11811,0.0236 0.0472,0.008 0.0946,0.0151 0.141761,0.0235 0.292179,0.0531 0.578649,0.12992 0.874059,0.16537 0.0942,0.0114 0.18896,0.0161 0.283501,0.0236 0.492598,0.0394 0.126838,0.009 0.66145,0.0472 0.719619,0.0514 -0.13557,-0.0116 0.661459,0.0709 0.109939,0.0114 0.22045,0.0161 0.330731,0.0236 0.20278,0.014 0.53213,0.0355 0.732319,0.0472 0.141711,0.008 0.28374,0.0122 0.425231,0.0236 0.149939,0.0122 0.298849,0.0357 0.448839,0.0472 0.157221,0.0122 0.315521,0.008 0.472472,0.0235 0.166259,0.0161 0.329959,0.0534 0.496088,0.0709 0.13335,0.014 0.26774,0.0156 0.401611,0.0235 0.133858,0.008 0.26755,0.0193 0.40159,0.0236 0.11806,0.004 0.236249,0 0.354359,0 0.125989,0 0.251981,0 0.377981,0 0.582719,0 1.16541,0 1.748129,0"
         style="fill:none;stroke:#975f46;stroke-width:0.26458332px;stroke-linecap:butt;stroke-linejoin:miter;stroke-opacity:1" />
      <path
         inkscape:connector-curvature="0"
         id="path6993-3-9"
         d="m 73.052684,51.740946 c 0.0266,-0.0188 0.0609,-0.0829 0.0797,-0.0563 0.01879,0.0266 -0.0475,0.0612 -0.0797,0.0563 -0.0823,-0.0127 -0.14909,-0.0752 -0.227409,-0.10356 -0.0611,-0.022 -0.125992,-0.0315 -0.188992,-0.0472 -0.063,-0.0159 -0.12531,-0.0345 -0.18899,-0.0472 -0.0939,-0.0188 -0.190791,-0.023 -0.283479,-0.0473 -0.0892,-0.0233 -0.16949,-0.0764 -0.259871,-0.0945 -0.108379,-0.0217 -0.220801,-0.0122 -0.33073,-0.0236 -0.324299,-0.0335 -0.334301,-0.0582 -0.637831,-0.0709 -0.0944,-0.004 -0.188989,0 -0.28348,0 -0.236238,0 -0.472458,0 -0.708707,0 -0.220483,0 -0.440952,0 -0.661461,0 -0.0866,0 -0.17322,0 -0.25985,0 -0.0394,0 -0.079,-0.005 -0.118131,0 -0.02461,0.003 -0.0463,0.0196 -0.0709,0.0236 -0.02331,0.004 -0.0472,0 -0.0709,0 -0.0236,0 -0.0472,0 -0.0709,0 -0.0315,0 -0.0633,-0.005 -0.0945,0 -0.02461,0.003 -0.0465,0.0183 -0.0709,0.0236 -0.189569,0.0421 -0.0879,0.004 -0.259869,0.0472 -0.0556,0.0138 -0.109299,0.0352 -0.16537,0.0472 -0.0544,0.0116 -0.110511,0.014 -0.165362,0.0236 -0.0791,0.014 -0.156898,0.0347 -0.23622,0.0473 -0.0871,0.0138 -0.433789,0.0448 -0.496099,0.0473 -0.10228,0.004 -0.204729,0 -0.307099,0 -0.110249,0 -0.220501,0 -0.330732,0 -0.102359,0 -0.204838,0.004 -0.307118,0 -0.360661,-0.0145 -0.187221,-0.0148 -0.496101,-0.0709 -0.101889,-0.0185 -0.20447,-0.0333 -0.307099,-0.0473 -0.0706,-0.01 -0.14282,-0.009 -0.212591,-0.0236 -0.19188,-0.0404 -0.24831,-0.0828 -0.425239,-0.14176 -0.0655,-0.0217 -0.293641,-0.0823 -0.354361,-0.0945 -0.0546,-0.0109 -0.110219,-0.0156 -0.165359,-0.0236 -0.0551,-0.008 -0.110231,-0.0156 -0.165371,-0.0236 -0.18087,-0.0259 -0.362029,-0.0482 -0.54332,-0.0708 -0.22079,-0.0276 -0.44249,-0.0547 -0.66146,-0.0945 -0.14081,-0.0257 -0.28231,-0.0589 -0.42524,-0.0709 -0.0392,-0.003 -0.0787,0 -0.11811,0 -0.14173,0 -0.28347,0 -0.42523,0 -0.0551,0 -0.110229,0 -0.16537,0 -0.063,0 -0.1261,-0.004 -0.18896,0 -0.0458,0.003 -0.30017,0.0389 -0.354359,0.0472 -0.0474,0.007 -0.0941,0.0183 -0.141741,0.0236 -0.0236,0.003 -0.0472,0 -0.0709,0 -0.008,0 -0.018,-0.006 -0.0236,0 -0.006,0.006 0.008,0.0235 0,0.0235 -0.008,0 0,-0.0156 0,-0.0235"
         style="fill:none;stroke:#975f46;stroke-width:0.26458332px;stroke-linecap:butt;stroke-linejoin:miter;stroke-opacity:1" />
      <path
         inkscape:connector-curvature="0"
         id="path6995-5-5"
         d="m 54.874433,51.751926 c 0.24278,0.13168 0.28564,0.23693 0.49305,0.21619 0.0477,-0.005 0.0945,-0.0156 0.14174,-0.0236 0.0945,-0.0159 0.18843,-0.0353 0.2835,-0.0472 0.27098,-0.0339 0.22878,-0.0161 0.51972,-0.0472 0.12623,-0.0135 0.25138,-0.0375 0.37796,-0.0472 0.41828,-0.0322 0.71146,-0.0236 1.13392,-0.0236 0.38587,0 0.77171,0 1.15755,0 0.11026,0 0.22059,-0.005 0.33073,0 0.006,2.4e-4 0.37209,0.0295 0.42524,0.0472 0.0212,0.007 0.0287,0.0349 0.0473,0.0473 0.007,0.004 0.018,-0.006 0.0235,0 0.006,0.006 0,0.0156 0,0.0235 0,0.0236 -0.009,0.0489 0,0.0709 0.008,0.0206 0.0315,0.0315 0.0473,0.0472 0.0159,0.0156 0.0315,0.0315 0.0472,0.0473 0.0236,0.0236 0.0431,0.0523 0.0709,0.0708 0.0206,0.0138 0.0472,0.0159 0.0709,0.0236 0.0236,0.008 0.0466,0.0183 0.0709,0.0236 0.21003,0.0467 0.0724,0.008 0.28348,0.0236 0.0633,0.005 0.12589,0.0167 0.18899,0.0236 0.0787,0.009 0.15758,0.0148 0.23622,0.0235 0.1262,0.014 0.25212,0.0305 0.37798,0.0472 0.0552,0.007 0.10996,0.018 0.16537,0.0236 0.0235,0.003 0.0472,0 0.0709,0 0.0331,0 0.10157,0 0.11811,0 0.0394,0 0.0787,0 0.11811,0 0.0236,0 0.0476,0.004 0.0709,0 0.0246,-0.004 0.0472,-0.0156 0.0709,-0.0236 0.0315,0 0.0633,0.005 0.0945,0 0.0246,-0.003 0.0469,-0.0167 0.0709,-0.0236 0.0312,-0.009 0.0633,-0.0148 0.0945,-0.0235 0.0241,-0.007 0.0464,-0.0188 0.0708,-0.0236 0.0257,-0.005 0.14013,0 0.16537,0 0.14962,0 0.29924,0 0.44887,0"
         style="fill:none;stroke:#975f46;stroke-width:0.26458332px;stroke-linecap:butt;stroke-linejoin:miter;stroke-opacity:1" />
    </g>
  </g>
  <g
     inkscape:groupmode="layer"
     id="layer39"
     inkscape:label="plank dark">
    <g
       id="g7177"
       transform="translate(-69.827307,-20.593634)">
      <g
         transform="translate(-459.32497,-536.67923)"
         id="g7004">
        <path
           style="opacity:1;vector-effect:none;fill:#985f42;fill-opacity:1;stroke:#3d220b;stroke-width:0.35299999;stroke-linecap:square;stroke-linejoin:round;stroke-miterlimit:4;stroke-dasharray:none;stroke-dashoffset:0;stroke-opacity:1"
           d="m 531.46545,566.97052 h 20.98066 l -0.83522,0.83521 0.97039,1.07078 -1.11456,0.54173 1.67235,0.47851 -1.08695,1.24438 1.31281,0.74996 -0.49842,0.4944 0.74527,0.40237 -2.67305,1.1497 1.50738,1.31832 h -20.98066 l 1.29502,-1.30735 -0.9123,-0.72748 0.20777,-0.85512 -0.64148,-0.36134 1.30481,-0.45695 -0.69434,-0.49963 -0.75399,-0.76209 1.88165,-1.27748 z"
           id="rect6974"
           inkscape:connector-curvature="0"
           sodipodi:nodetypes="cccccccccccccccccccccc" />
        <path
           style="fill:none;stroke:#754932;stroke-width:0.26458332px;stroke-linecap:butt;stroke-linejoin:miter;stroke-opacity:1"
           d="m 534.19848,568.40059 c 0.0315,0.008 0.10237,-0.008 0.0945,0.0236 -0.008,0.0315 -0.12269,-0.0397 -0.0945,-0.0236 0.0826,0.0472 0.17346,0.0782 0.25985,0.11811 0.0159,0.007 0.0315,0.0159 0.0472,0.0236 0.0236,0.0159 0.0455,0.0346 0.0709,0.0473 0.0222,0.0111 0.0476,0.0148 0.0709,0.0236 0.0397,0.0148 0.0772,0.0361 0.11811,0.0472 0.0561,0.0154 0.29067,0.0425 0.33073,0.0472 0.20418,0.0241 0.2781,0.0311 0.49609,0.0473 0.11806,0.009 0.23625,0.0156 0.35436,0.0235 0.11025,0.008 0.22026,0.0196 0.33073,0.0236 0.11017,0.004 0.22047,0 0.33073,0 0.11025,0 0.22047,0 0.33073,0 0.32284,0 0.64571,0 0.96856,0 0.28347,0 0.56697,0 0.85045,0 0.17324,0 0.34652,0.004 0.51972,0 1.13519,-0.0241 0.0309,-0.019 1.25203,-0.0709 0.3969,-0.0169 0.52038,0.0251 0.92133,-0.0236 0.16709,-0.0204 0.33102,-0.0615 0.4961,-0.0945 0.0888,-0.0177 0.77644,-0.16261 0.87405,-0.18899 0.98674,-0.26668 -0.0346,-0.0132 0.80322,-0.28348 0.47173,-0.15219 0.27787,-0.0521 0.75594,-0.14174 0.12764,-0.0238 0.25199,-0.063 0.37799,-0.0945 0.14173,-0.0315 0.28231,-0.0688 0.42521,-0.0945 0.3366,-0.0604 0.56393,-0.0847 0.8977,-0.0945 0.42741,-0.0124 0.3555,-0.0148 0.75594,0.0709 0.10274,0.022 0.20744,0.0376 0.3071,0.0708 0.11722,0.0391 0.32782,0.15566 0.44887,0.21262 0.0702,0.033 0.14325,0.0598 0.21259,0.0945 0.10258,0.0513 0.14706,0.10414 0.25988,0.14174 0.0454,0.0151 0.095,0.0132 0.14173,0.0235 0.0243,0.005 0.0463,0.0196 0.0709,0.0236 0.0265,0.004 0.14362,-0.007 0.16536,0 0.0106,0.003 0.0143,0.0175 0.0236,0.0236 0.11936,0.0796 0,1.9e-4 0.0709,0.0236 0.0167,0.006 0.0309,0.0172 0.0473,0.0236 0.0153,0.006 0.0996,0.0288 0.11811,0.0472 0.0201,0.0201 0.0272,0.0508 0.0473,0.0709 0.0489,0.0489 -0.003,-0.0747 0.0472,0.0235 0.007,0.014 -0.007,0.0332 0,0.0473 0.005,0.01 0.0188,0.0138 0.0236,0.0236 0.003,0.007 0,0.0156 0,0.0235 0,0.0923 0.007,0.003 -0.0236,0.0945 -0.0391,0.11715 0.0114,0.0769 -0.0709,0.11811"
           id="path6985"
           inkscape:connector-curvature="0" />
        <path
           style="fill:none;stroke:#754932;stroke-width:0.26458332px;stroke-linecap:butt;stroke-linejoin:miter;stroke-opacity:1"
           d="m 535.0489,570.50307 c 0.0315,0 0.0945,-0.0315 0.0945,0 0,0.0271 -0.50115,-0.0648 0.11811,0.0236 0.0398,0.006 0.0785,0.0169 0.11811,0.0236 0.0978,0.0164 0.25882,0.0353 0.35436,0.0473 0.063,0.008 0.1256,0.0204 0.18899,0.0236 0.0944,0.005 0.18907,-0.004 0.28348,0 0.0947,0.004 0.18875,0.0196 0.2835,0.0236 0.0944,0.004 0.18899,0 0.28347,0 0.11025,0 0.22048,0 0.33073,0 0.11025,0 0.22056,0.004 0.33073,0 0.76779,-0.0274 -0.12121,-0.0212 0.68508,-0.0473 0.12592,-0.004 0.25215,0.007 0.37799,0 0.1737,-0.009 0.34613,-0.0357 0.51969,-0.0472 0.1809,-0.0122 0.36238,-0.013 0.54335,-0.0236 0.22066,-0.013 0.44074,-0.0354 0.66146,-0.0472 0.22032,-0.0119 0.44111,-0.0127 0.66146,-0.0235 0.26003,-0.0127 0.51938,-0.0386 0.77957,-0.0473 0.21251,-0.007 0.42523,0 0.63785,0 0.19685,0 0.39373,0 0.59058,0 0.14962,0 0.29924,0 0.44884,0 0.13388,0 0.26781,-0.004 0.40161,0 0.55782,0.0164 0.24665,0.0233 0.8032,0.0709 0.14144,0.0122 0.28344,0.0161 0.42521,0.0236 0.15748,0.008 0.31557,0.008 0.47249,0.0236 0.15846,0.0159 0.31414,0.0538 0.47247,0.0709 0.0589,0.006 0.78054,0.0433 0.82682,0.0473 0.1343,0.0116 0.26734,0.0354 0.40158,0.0472 0.13359,0.0119 0.26758,0.0193 0.40162,0.0236 0.20462,0.006 0.40946,0 0.6142,0 0.17325,0 0.34647,0 0.51972,0 0.0551,0 0.11044,0.005 0.16537,0 0.04,-0.003 0.0787,-0.0156 0.11811,-0.0236 0.0394,-0.008 0.0795,-0.0127 0.11813,-0.0235 0.0169,-0.005 0.03,-0.0201 0.0472,-0.0236 0.0233,-0.005 0.0477,0.005 0.0709,0 0.0172,-0.003 0.0315,-0.0159 0.0473,-0.0236 0.0315,-0.0159 0.0611,-0.0361 0.0945,-0.0472 0.007,-0.003 0.018,0.006 0.0236,0 0.006,-0.006 -0.006,-0.018 0,-0.0236 0.0153,-0.0154 0.10705,-0.0454 0.11811,-0.0473 0.0233,-0.004 0.0475,0.003 0.0709,0 0.0322,-0.005 0.0623,-0.0196 0.0945,-0.0236 0.0312,-0.004 0.063,0 0.0945,0 0.0394,0 0.0787,0 0.11811,0 0.0156,0 0.0315,0 0.0473,0 0.008,0 0.0201,-0.007 0.0235,0 0.007,0.014 -0.007,0.0332 0,0.0472 0.007,0.014 0.0361,-0.0111 0.0473,0 0,0 0,0.0651 0,0.0709"
           id="path6987"
           inkscape:connector-curvature="0" />
        <path
           style="fill:none;stroke:#754932;stroke-width:0.26458332px;stroke-linecap:butt;stroke-linejoin:miter;stroke-opacity:1"
           d="m 532.05594,572.36592 c 0.099,0.11105 0.0482,0.0784 0.13454,0.12153 0.0159,0.008 0.0299,0.0206 0.0472,0.0236 0.0311,0.005 0.0633,-0.005 0.0945,0 0.0246,0.003 0.0466,0.0183 0.0709,0.0235 0.0468,0.0103 0.0946,0.0151 0.14176,0.0236 0.0395,0.007 0.0786,0.0164 0.11811,0.0236 0.0471,0.008 0.0948,0.0143 0.14174,0.0236 0.0318,0.006 0.0628,0.0167 0.0945,0.0236 0.0392,0.009 0.0788,0.0159 0.11814,0.0235 0.0394,0.008 0.0781,0.0201 0.11811,0.0236 0.047,0.004 0.0946,-0.004 0.14174,0 0.44481,0.0635 -0.0877,-0.005 0.3071,0.0236 0.0633,0.005 0.12565,0.0193 0.18899,0.0236 0.055,0.004 0.11025,0 0.16537,0 0.0551,0 0.11025,0 0.16536,0 0.0472,0 0.0947,0.004 0.14174,0 0.04,-0.004 0.0785,-0.0169 0.11813,-0.0236 0.0549,-0.009 0.11023,-0.0156 0.16537,-0.0236 0.22045,-0.0315 0.44225,-0.0546 0.66146,-0.0945 0.0395,-0.007 0.0786,-0.0164 0.11811,-0.0236 0.0471,-0.008 0.0953,-0.0119 0.14173,-0.0236 0.0483,-0.0122 0.0937,-0.0341 0.14174,-0.0473 0.14571,-0.0397 0.30038,-0.0461 0.44884,-0.0709 0.0792,-0.0132 0.15642,-0.0384 0.23625,-0.0473 0.0313,-0.003 0.063,0 0.0945,0 0.0473,0 0.0945,0 0.14176,0 0.0236,0 0.0472,0 0.0709,0 0.0236,0 0.0476,-0.004 0.0709,0 0.0983,0.0164 0.041,0.0214 0.11811,0.0473 0.007,0.003 0.0167,-0.003 0.0236,0 0.0198,0.0101 0.0262,0.0402 0.0473,0.0473 1.1e-4,2e-5 0.0708,-3e-5 0.0709,0 0.006,0.006 0.008,0.0235 0,0.0235 -0.008,0 0,-0.0159 0,-0.0235"
           id="path6989"
           inkscape:connector-curvature="0" />
        <path
           style="fill:none;stroke:#754932;stroke-width:0.26458332px;stroke-linecap:butt;stroke-linejoin:miter;stroke-opacity:1"
           d="m 542.65567,571.75513 c 0.0159,0.0315 0.0788,0.0787 0.0473,0.0945 -0.0315,0.0159 -0.0148,-0.10835 -0.0473,-0.0945 -0.11305,0.0485 -0.17568,0.17696 -0.28347,0.23622 -0.0556,0.0306 -0.12605,0.0154 -0.18899,0.0236 -0.0552,0.007 -0.1098,0.0199 -0.16537,0.0236 -0.0628,0.004 -0.12599,0 -0.18899,0 -0.063,0 -0.12597,0 -0.18896,0 -0.063,0 -0.126,0 -0.189,0 -0.063,0 -0.1261,0.004 -0.18899,0 -0.27577,-0.0161 -0.12959,-0.0164 -0.33073,-0.0472 -0.20251,-0.0312 -0.19394,-0.0117 -0.40161,-0.0709 -0.0408,-0.0116 -0.0783,-0.0328 -0.11811,-0.0472 -0.29779,-0.0993 0.003,0.004 -0.25985,-0.0945 -0.0439,-0.0164 -0.0795,-0.0214 -0.11813,-0.0472 -0.009,-0.006 -0.0138,-0.0185 -0.0236,-0.0236 -0.0222,-0.0111 -0.0486,-0.0124 -0.0709,-0.0236 -0.0101,-0.005 -0.0138,-0.0185 -0.0235,-0.0236 -0.014,-0.007 -0.0361,0.0111 -0.0473,0 -0.006,-0.006 -0.003,-0.0167 0,-0.0235 0.005,-0.0101 0.0159,-0.0159 0.0236,-0.0236 0.0595,-0.0595 0.0387,-0.0448 0.11811,-0.0945 0.13073,-0.0817 0.11467,-0.0691 0.25987,-0.14174 0.10832,-0.0542 0.21151,-0.11192 0.33073,-0.14174 0.0616,-0.0153 0.12637,-0.0132 0.18899,-0.0235 0.0792,-0.0132 0.1569,-0.0347 0.23622,-0.0473 0.0704,-0.0111 0.14172,-0.0161 0.21262,-0.0236 0.37926,-0.0399 0.0937,-0.006 0.42522,-0.0472 0.063,-0.008 0.12607,-0.0154 0.18899,-0.0236 0.0552,-0.007 0.10983,-0.0196 0.16536,-0.0236 0.055,-0.004 0.11039,0.004 0.16537,0 0.55443,-0.0396 -0.26183,-0.009 0.35435,-0.0472 0.0629,-0.004 0.126,0 0.189,0 0.11025,0 0.22047,0 0.33072,0 0.11026,0 0.22048,0 0.33073,0 0.0473,0 0.0947,-0.004 0.14174,0 0.04,0.004 0.0786,0.0164 0.11811,0.0236 0.0472,0.008 0.0946,0.0151 0.14176,0.0235 0.29218,0.0531 0.57865,0.12992 0.87406,0.16537 0.0942,0.0114 0.18896,0.0161 0.2835,0.0236 0.4926,0.0394 0.12684,0.009 0.66145,0.0472 0.71962,0.0514 -0.13557,-0.0116 0.66146,0.0709 0.10994,0.0114 0.22045,0.0161 0.33073,0.0236 0.20278,0.014 0.53213,0.0355 0.73232,0.0472 0.14171,0.008 0.28374,0.0122 0.42523,0.0236 0.14994,0.0122 0.29885,0.0357 0.44884,0.0472 0.15722,0.0122 0.31552,0.008 0.47247,0.0235 0.16626,0.0161 0.32996,0.0534 0.49609,0.0709 0.13335,0.014 0.26774,0.0156 0.40161,0.0235 0.13386,0.008 0.26755,0.0193 0.40159,0.0236 0.11806,0.004 0.23625,0 0.35436,0 0.12599,0 0.25198,0 0.37798,0 0.58272,0 1.16541,0 1.74813,0"
           id="path6991"
           inkscape:connector-curvature="0" />
        <path
           style="fill:none;stroke:#754932;stroke-width:0.26458332px;stroke-linecap:butt;stroke-linejoin:miter;stroke-opacity:1"
           d="m 550.93872,573.93755 c 0.0266,-0.0188 0.0609,-0.0829 0.0797,-0.0563 0.0188,0.0266 -0.0475,0.0612 -0.0797,0.0563 -0.0823,-0.0127 -0.14909,-0.0752 -0.22741,-0.10356 -0.0611,-0.022 -0.12599,-0.0315 -0.18899,-0.0472 -0.063,-0.0159 -0.12531,-0.0345 -0.18899,-0.0472 -0.0939,-0.0188 -0.19079,-0.023 -0.28348,-0.0473 -0.0892,-0.0233 -0.16949,-0.0764 -0.25987,-0.0945 -0.10838,-0.0217 -0.2208,-0.0122 -0.33073,-0.0236 -0.3243,-0.0335 -0.3343,-0.0582 -0.63783,-0.0709 -0.0944,-0.004 -0.18899,0 -0.28348,0 -0.23624,0 -0.47246,0 -0.70871,0 -0.22048,0 -0.44095,0 -0.66146,0 -0.0866,0 -0.17322,0 -0.25985,0 -0.0394,0 -0.079,-0.005 -0.11813,0 -0.0246,0.003 -0.0463,0.0196 -0.0709,0.0236 -0.0233,0.004 -0.0472,0 -0.0709,0 -0.0236,0 -0.0472,0 -0.0709,0 -0.0315,0 -0.0633,-0.005 -0.0945,0 -0.0246,0.003 -0.0465,0.0183 -0.0709,0.0236 -0.18957,0.0421 -0.0879,0.004 -0.25987,0.0472 -0.0556,0.0138 -0.1093,0.0352 -0.16537,0.0472 -0.0544,0.0116 -0.11051,0.014 -0.16536,0.0236 -0.0791,0.014 -0.1569,0.0347 -0.23622,0.0473 -0.0871,0.0138 -0.43379,0.0448 -0.4961,0.0473 -0.10228,0.004 -0.20473,0 -0.3071,0 -0.11025,0 -0.2205,0 -0.33073,0 -0.10236,0 -0.20484,0.004 -0.30712,0 -0.36066,-0.0145 -0.18722,-0.0148 -0.4961,-0.0709 -0.10189,-0.0185 -0.20447,-0.0333 -0.3071,-0.0473 -0.0706,-0.01 -0.14282,-0.009 -0.21259,-0.0236 -0.19188,-0.0404 -0.24831,-0.0828 -0.42524,-0.14176 -0.0655,-0.0217 -0.29364,-0.0823 -0.35436,-0.0945 -0.0546,-0.0109 -0.11022,-0.0156 -0.16536,-0.0236 -0.0551,-0.008 -0.11023,-0.0156 -0.16537,-0.0236 -0.18087,-0.0259 -0.36203,-0.0482 -0.54332,-0.0708 -0.22079,-0.0276 -0.44249,-0.0547 -0.66146,-0.0945 -0.14081,-0.0257 -0.28231,-0.0589 -0.42524,-0.0709 -0.0392,-0.003 -0.0787,0 -0.11811,0 -0.14173,0 -0.28347,0 -0.42523,0 -0.0551,0 -0.11023,0 -0.16537,0 -0.063,0 -0.1261,-0.004 -0.18896,0 -0.0458,0.003 -0.30017,0.0389 -0.35436,0.0472 -0.0474,0.007 -0.0941,0.0183 -0.14174,0.0236 -0.0236,0.003 -0.0472,0 -0.0709,0 -0.008,0 -0.018,-0.006 -0.0236,0 -0.006,0.006 0.008,0.0235 0,0.0235 -0.008,0 0,-0.0156 0,-0.0235"
           id="path6993"
           inkscape:connector-curvature="0" />
        <path
           style="fill:none;stroke:#754932;stroke-width:0.26458332px;stroke-linecap:butt;stroke-linejoin:miter;stroke-opacity:1"
           d="m 532.76047,573.94853 c 0.24278,0.13168 0.28564,0.23693 0.49305,0.21619 0.0477,-0.005 0.0945,-0.0156 0.14174,-0.0236 0.0945,-0.0159 0.18843,-0.0353 0.2835,-0.0472 0.27098,-0.0339 0.22878,-0.0161 0.51972,-0.0472 0.12623,-0.0135 0.25138,-0.0375 0.37796,-0.0472 0.41828,-0.0322 0.71146,-0.0236 1.13392,-0.0236 0.38587,0 0.77171,0 1.15755,0 0.11026,0 0.22059,-0.005 0.33073,0 0.006,2.4e-4 0.37209,0.0295 0.42524,0.0472 0.0212,0.007 0.0287,0.0349 0.0473,0.0473 0.007,0.004 0.018,-0.006 0.0235,0 0.006,0.006 0,0.0156 0,0.0235 0,0.0236 -0.009,0.0489 0,0.0709 0.008,0.0206 0.0315,0.0315 0.0473,0.0472 0.0159,0.0156 0.0315,0.0315 0.0472,0.0473 0.0236,0.0236 0.0431,0.0523 0.0709,0.0708 0.0206,0.0138 0.0472,0.0159 0.0709,0.0236 0.0236,0.008 0.0466,0.0183 0.0709,0.0236 0.21003,0.0467 0.0724,0.008 0.28348,0.0236 0.0633,0.005 0.12589,0.0167 0.18899,0.0236 0.0787,0.009 0.15758,0.0148 0.23622,0.0235 0.1262,0.014 0.25212,0.0305 0.37798,0.0472 0.0552,0.007 0.10996,0.018 0.16537,0.0236 0.0235,0.003 0.0472,0 0.0709,0 0.0331,0 0.10157,0 0.11811,0 0.0394,0 0.0787,0 0.11811,0 0.0236,0 0.0476,0.004 0.0709,0 0.0246,-0.004 0.0472,-0.0156 0.0709,-0.0236 0.0315,0 0.0633,0.005 0.0945,0 0.0246,-0.003 0.0469,-0.0167 0.0709,-0.0236 0.0312,-0.009 0.0633,-0.0148 0.0945,-0.0235 0.0241,-0.007 0.0464,-0.0188 0.0708,-0.0236 0.0257,-0.005 0.14013,0 0.16537,0 0.14962,0 0.29924,0 0.44887,0"
           id="path6995"
           inkscape:connector-curvature="0" />
      </g>
    </g>
  </g>
</svg>
